<svg width="80" height="80" viewBox="0 0 80 80" fill="none" xmlns="http://www.w3.org/2000/svg">
<g clip-path="url(#clip0_1_1351)">
<path d="M40 80C62.0914 80 80 62.0914 80 40C80 17.9086 62.0914 0 40 0C17.9086 0 0 17.9086 0 40C0 62.0914 17.9086 80 40 80Z" fill="url(#paint0_radial_1_1351)"/>
<path d="M57.6819 51.7672C58.3657 50.9696 58.7411 49.9535 58.7401 48.903V48.4317C58.7401 47.2608 58.275 46.1379 57.447 45.31C56.6191 44.482 55.4961 44.0169 54.3253 44.0169C53.1544 44.0169 52.0315 44.482 51.2035 45.31C50.3756 46.1379 49.9105 47.2608 49.9105 48.4317V48.903C49.9094 49.9535 50.2848 50.9696 50.9687 51.7672C49.3723 52.1821 48.0043 53.2104 47.162 54.6285C46.3196 53.2104 44.9516 52.1821 43.3553 51.7672C44.0391 50.9696 44.4145 49.9535 44.4135 48.903V48.4317C44.4135 47.2608 43.9483 46.1379 43.1204 45.31C42.2924 44.482 41.1695 44.0169 39.9986 44.0169C38.8278 44.0169 37.7048 44.482 36.8769 45.31C36.049 46.1379 35.5838 47.2608 35.5838 48.4317V48.903C35.5828 49.9535 35.9582 50.9696 36.642 51.7672C35.0457 52.1821 33.6776 53.2104 32.8353 54.6285C31.993 53.2104 30.625 52.1821 29.0286 51.7672C29.7124 50.9696 30.0879 49.9535 30.0868 48.903V48.4317C30.0868 47.2608 29.6217 46.1379 28.7938 45.31C27.9658 44.482 26.8429 44.0169 25.672 44.0169C24.5011 44.0169 23.3782 44.482 22.5503 45.31C21.7223 46.1379 21.2572 47.2608 21.2572 48.4317V48.903C21.2562 49.9535 21.6316 50.9696 22.3154 51.7672C20.9766 52.1133 19.7905 52.8941 18.9433 53.987C18.096 55.0799 17.6355 56.4231 17.6339 57.806V61.4885C17.6339 61.7205 17.7261 61.943 17.8901 62.1071C18.0542 62.2711 18.2767 62.3633 18.5087 62.3633H61.4886C61.7206 62.3633 61.9431 62.2711 62.1071 62.1071C62.2712 61.943 62.3634 61.7205 62.3634 61.4885V57.806C62.3618 56.4231 61.9012 55.0799 61.054 53.987C60.2067 52.8941 59.0207 52.1133 57.6819 51.7672ZM51.66 48.4317C51.66 47.7245 51.941 47.0462 52.4411 46.5461C52.9412 46.046 53.6194 45.7651 54.3267 45.7651C55.0339 45.7651 55.7122 46.046 56.2123 46.5461C56.7124 47.0462 56.9933 47.7245 56.9933 48.4317V48.903C56.9933 49.6102 56.7124 50.2885 56.2123 50.7886C55.7122 51.2887 55.0339 51.5696 54.3267 51.5696C53.6194 51.5696 52.9412 51.2887 52.4411 50.7886C51.941 50.2885 51.66 49.6102 51.66 48.903V48.4317ZM37.3334 48.4317C37.3334 47.7245 37.6143 47.0462 38.1144 46.5461C38.6145 46.046 39.2928 45.7651 40 45.7651C40.7073 45.7651 41.3856 46.046 41.8857 46.5461C42.3858 47.0462 42.6667 47.7245 42.6667 48.4317V48.903C42.6667 49.6102 42.3858 50.2885 41.8857 50.7886C41.3856 51.2887 40.7073 51.5696 40 51.5696C39.2928 51.5696 38.6145 51.2887 38.1144 50.7886C37.6143 50.2885 37.3334 49.6102 37.3334 48.903V48.4317ZM23.0068 48.4317C23.0068 47.7245 23.2877 47.0462 23.7878 46.5461C24.2879 46.046 24.9662 45.7651 25.6734 45.7651C26.3807 45.7651 27.0589 46.046 27.559 46.5461C28.0591 47.0462 28.3401 47.7245 28.3401 48.4317V48.903C28.3401 49.6102 28.0591 50.2885 27.559 50.7886C27.0589 51.2887 26.3807 51.5696 25.6734 51.5696C24.9662 51.5696 24.2879 51.2887 23.7878 50.7886C23.2877 50.2885 23.0068 49.6102 23.0068 48.903V48.4317ZM19.3835 57.806C19.385 56.6165 19.8582 55.4761 20.6993 54.635C21.5404 53.7939 22.6807 53.3207 23.8702 53.3192H27.4766C28.6661 53.3207 29.8065 53.7939 30.6476 54.635C31.4887 55.4761 31.9619 56.6165 31.9634 57.806V60.6278H19.3835V57.806ZM33.7101 57.806C33.7116 56.6165 34.1848 55.4761 35.0259 54.635C35.867 53.7939 37.0074 53.3207 38.1969 53.3192H41.8032C42.9927 53.3207 44.1331 53.7939 44.9742 54.635C45.8153 55.4761 46.2885 56.6165 46.29 57.806V60.6278H33.7101V57.806ZM60.6166 60.6278H48.0367V57.806C48.0382 56.6165 48.5114 55.4761 49.3525 54.635C50.1936 53.7939 51.334 53.3207 52.5235 53.3192H56.1299C57.3194 53.3207 58.4597 53.7939 59.3008 54.635C60.1419 55.4761 60.6151 56.6165 60.6166 57.806V60.6278Z" fill="#FE6A84"/>
<path d="M24.3922 35.1605V40.0113C24.3912 40.1772 24.4375 40.34 24.5258 40.4805C24.6141 40.621 24.7406 40.7335 24.8905 40.8046C25.0404 40.8757 25.2076 40.9026 25.3722 40.882C25.5369 40.8614 25.6923 40.7943 25.8201 40.6885L30.7584 36.6476H36.2046L39.3284 40.5559C39.4126 40.661 39.52 40.7452 39.6421 40.802C39.7642 40.8589 39.8977 40.8867 40.0324 40.8834C40.167 40.8802 40.2991 40.8458 40.4183 40.7831C40.5375 40.7205 40.6406 40.6311 40.7196 40.522L43.5048 36.6476H49.2896L54.2025 40.6857C54.3305 40.7902 54.4855 40.8562 54.6495 40.8763C54.8135 40.8963 54.9798 40.8695 55.1292 40.7989C55.2786 40.7284 55.4049 40.6169 55.4936 40.4775C55.5823 40.3381 55.6297 40.1765 55.6303 40.0113V35.1464C57.3592 34.0377 58.6826 32.399 59.4024 30.4755C60.1222 28.552 60.1998 26.4472 59.6235 24.4759C59.0472 22.5046 57.848 20.773 56.2055 19.5401C54.5629 18.3073 52.5652 17.6395 50.5115 17.6367H29.4998C27.4429 17.6371 25.4416 18.3047 23.7963 19.5392C22.151 20.7737 20.9505 22.5085 20.3749 24.4833C19.7993 26.4581 19.8798 28.5662 20.6041 30.4914C21.3285 32.4166 22.6577 34.0549 24.3922 35.1605ZM29.4998 19.3862H50.5115C52.2246 19.3867 53.8895 19.9541 55.2464 20.9999C56.6033 22.0456 57.5761 23.511 58.0129 25.1676C58.4497 26.8241 58.3261 28.5786 57.6614 30.1575C56.9966 31.7365 55.8281 33.051 54.3379 33.8963C54.2035 33.9722 54.0916 34.0825 54.0138 34.2159C53.9359 34.3493 53.8949 34.5009 53.8949 34.6554V38.1658L50.17 35.104C50.0111 34.9737 49.8112 34.9038 49.6057 34.9065H43.0561C42.9176 34.9066 42.7811 34.9396 42.658 35.0029C42.5348 35.0662 42.4285 35.158 42.3478 35.2705L39.9746 38.5721L37.3079 35.2367C37.2259 35.1344 37.122 35.0519 37.0038 34.9953C36.8856 34.9386 36.7561 34.9092 36.6251 34.9093H30.4339C30.2284 34.9068 30.0286 34.9768 29.8695 35.1069L26.1362 38.1658V34.6695C26.1366 34.5146 26.0959 34.3623 26.018 34.2284C25.9401 34.0945 25.828 33.9838 25.6931 33.9076C24.199 33.0659 23.0257 31.753 22.3566 30.174C21.6876 28.595 21.5604 26.8389 21.9949 25.1799C22.4295 23.521 23.4013 22.0527 24.7586 21.0045C26.1159 19.9564 27.7821 19.3873 29.497 19.3862H29.4998Z" fill="white"/>
<path d="M50.5115 22.8769H50.5454C50.7684 22.8642 50.9782 22.7666 51.1316 22.6042C51.285 22.4418 51.3705 22.2269 51.3705 22.0035C51.3705 21.7801 51.285 21.5651 51.1316 21.4027C50.9782 21.2404 50.7684 21.1428 50.5454 21.1301H50.5115C50.2885 21.1428 50.0787 21.2404 49.9253 21.4027C49.7719 21.5651 49.6864 21.7801 49.6864 22.0035C49.6864 22.2269 49.7719 22.4418 49.9253 22.6042C50.0787 22.7666 50.2885 22.8642 50.5115 22.8769Z" fill="white"/>
<path d="M53.2995 23.9295C53.7447 24.3171 54.1045 24.7931 54.356 25.3272C54.6075 25.8613 54.7451 26.4419 54.7603 27.032C54.7754 27.6222 54.6676 28.209 54.4439 28.7553C54.2201 29.3016 53.8851 29.7954 53.4603 30.2053C53.3694 30.2828 53.2954 30.3781 53.2428 30.4854C53.1901 30.5926 53.16 30.7094 53.1543 30.8287C53.1485 30.948 53.1673 31.0673 53.2094 31.179C53.2515 31.2908 53.316 31.3928 53.399 31.4787C53.482 31.5646 53.5817 31.6326 53.692 31.6785C53.8022 31.7244 53.9207 31.7472 54.0402 31.7455C54.1596 31.7439 54.2774 31.7178 54.3864 31.6689C54.4954 31.6199 54.5931 31.5492 54.6737 31.461C55.2723 30.8831 55.7442 30.187 56.0595 29.417C56.3748 28.647 56.5267 27.8199 56.5055 26.9881C56.4842 26.1564 56.2904 25.3381 55.9362 24.5852C55.582 23.8323 55.0752 23.1612 54.448 22.6145C54.2715 22.4794 54.0502 22.4165 53.8291 22.4386C53.6079 22.4607 53.4035 22.5662 53.2573 22.7336C53.1111 22.901 53.0341 23.1178 53.0419 23.3399C53.0498 23.562 53.1418 23.7728 53.2995 23.9295Z" fill="white"/>
<path d="M37.3136 29.8892C38.0078 30.5277 38.7441 31.1188 39.5175 31.6586C39.6624 31.7568 39.8334 31.8094 40.0085 31.8094C40.1836 31.8094 40.3546 31.7568 40.4995 31.6586C41.2729 31.1188 42.0092 30.5277 42.7034 29.8892C43.338 29.4339 43.8757 28.8569 44.2851 28.1917C44.6944 27.5265 44.9673 26.7865 45.0879 26.0148C45.1161 25.1072 44.7836 24.2254 44.1633 23.5622C43.543 22.8991 42.6853 22.5086 41.7778 22.4762C41.1466 22.4781 40.5305 22.6687 40.0085 23.0236C39.4865 22.6689 38.8704 22.4782 38.2392 22.4762C37.3317 22.5086 36.474 22.8991 35.8537 23.5622C35.2334 24.2254 34.901 25.1072 34.9291 26.0148C35.0497 26.7865 35.3226 27.5265 35.732 28.1917C36.1413 28.8569 36.679 29.4339 37.3136 29.8892ZM38.2392 24.2201C38.4515 24.2225 38.6608 24.2712 38.8523 24.3629C39.0439 24.4545 39.2131 24.5868 39.3482 24.7506C39.4303 24.8451 39.5318 24.9209 39.6457 24.9728C39.7596 25.0248 39.8833 25.0516 40.0085 25.0516C40.1337 25.0516 40.2574 25.0248 40.3714 24.9728C40.4853 24.9209 40.5867 24.8451 40.6688 24.7506C40.8039 24.5868 40.9732 24.4545 41.1647 24.3629C41.3563 24.2712 41.5655 24.2225 41.7778 24.2201C42.2216 24.2534 42.6344 24.4601 42.927 24.7954C43.2196 25.1308 43.3683 25.5678 43.3411 26.012C43.3411 26.9884 41.5013 28.752 40.0085 29.861C38.5186 28.7549 36.6843 26.994 36.6843 26.0148C36.6571 25.5715 36.8051 25.1353 37.0965 24.8001C37.3878 24.4649 37.7993 24.2576 38.242 24.2229L38.2392 24.2201Z" fill="#FE6A84"/>
<path d="M14.6398 37.6719C15.5812 37.6719 16.3442 36.9089 16.3442 35.9675C16.3442 35.0262 15.5812 34.2631 14.6398 34.2631C13.6985 34.2631 12.9354 35.0262 12.9354 35.9675C12.9354 36.9089 13.6985 37.6719 14.6398 37.6719Z" fill="white"/>
<path d="M48.3668 14.0642C49.0619 14.0642 49.6254 13.5008 49.6254 12.8057C49.6254 12.1106 49.0619 11.5471 48.3668 11.5471C47.6717 11.5471 47.1083 12.1106 47.1083 12.8057C47.1083 13.5008 47.6717 14.0642 48.3668 14.0642Z" fill="white"/>
<path d="M66.0063 54.8967C66.5502 54.8967 66.9911 54.4557 66.9911 53.9118C66.9911 53.3679 66.5502 52.927 66.0063 52.927C65.4624 52.927 65.0215 53.3679 65.0215 53.9118C65.0215 54.4557 65.4624 54.8967 66.0063 54.8967Z" fill="white"/>
<path d="M8.09596 53.9569C9.60613 53.9569 10.8304 52.7327 10.8304 51.2226C10.8304 49.7124 9.60613 48.4882 8.09596 48.4882C6.5858 48.4882 5.36157 49.7124 5.36157 51.2226C5.36157 52.7327 6.5858 53.9569 8.09596 53.9569Z" stroke="white" stroke-width="0.5" stroke-miterlimit="10"/>
<path d="M31.9322 7.5259C33.0247 7.5259 33.9104 6.64026 33.9104 5.54777C33.9104 4.45528 33.0247 3.56964 31.9322 3.56964C30.8397 3.56964 29.9541 4.45528 29.9541 5.54777C29.9541 6.64026 30.8397 7.5259 31.9322 7.5259Z" stroke="white" stroke-width="0.5" stroke-miterlimit="10"/>
<path d="M71.0209 30.4536C72.3814 30.4536 73.4844 29.3507 73.4844 27.9901C73.4844 26.6296 72.3814 25.5266 71.0209 25.5266C69.6603 25.5266 68.5574 26.6296 68.5574 27.9901C68.5574 29.3507 69.6603 30.4536 71.0209 30.4536Z" stroke="white" stroke-width="0.5" stroke-miterlimit="10"/>
</g>
<defs>
<radialGradient id="paint0_radial_1_1351" cx="0" cy="0" r="1" gradientUnits="userSpaceOnUse" gradientTransform="translate(40 40) scale(39.5824)">
<stop stop-color="#FE6A84"/>
<stop offset="0.993" stop-color="#FE6A84" stop-opacity="0"/>
</radialGradient>
<clipPath id="clip0_1_1351">
<rect width="80" height="80" fill="white"/>
</clipPath>
</defs>
</svg>
