<svg width="80" height="80" viewBox="0 0 80 80" fill="none" xmlns="http://www.w3.org/2000/svg">
<g clip-path="url(#clip0_1_1270)">
<path d="M40 80C62.0914 80 80 62.0914 80 40C80 17.9086 62.0914 0 40 0C17.9086 0 0 17.9086 0 40C0 62.0914 17.9086 80 40 80Z" fill="url(#paint0_radial_1_1270)"/>
<path d="M29.6861 50.4099L29.8949 51.9958C29.7679 51.9958 29.6522 51.976 29.5281 51.976C29.1264 51.9763 28.7269 52.0362 28.3429 52.1538L28.1341 50.5905L24.4402 23.8702C24.3224 22.995 23.8714 22.1989 23.1811 21.648C22.4909 21.0971 21.6147 20.8338 20.7351 20.9129L14.575 21.4773C14.4723 21.4862 14.3689 21.4748 14.2707 21.4437C14.1724 21.4126 14.0813 21.3625 14.0024 21.2962C13.8431 21.1623 13.7435 20.9706 13.7256 20.7633C13.7076 20.556 13.7728 20.3501 13.9066 20.1908C14.0405 20.0315 14.2322 19.9319 14.4395 19.914L20.5884 19.3496C21.8709 19.2322 23.1493 19.6136 24.1578 20.4146C25.1664 21.2155 25.8274 22.3743 26.0035 23.6501L29.6861 50.4099Z" fill="white"/>
<path d="M64.5475 51.2085C64.5718 51.4167 64.5141 51.6262 64.3866 51.7926C64.2592 51.959 64.0719 52.0693 63.8646 52.1002L35.1013 56.0254L33.5154 56.2342C33.5206 56.1468 33.5206 56.0592 33.5154 55.9718C33.5182 55.5323 33.4437 55.0958 33.2953 54.6822L34.8812 54.4734L63.6445 50.5369C63.7481 50.5201 63.854 50.5243 63.9559 50.5492C64.0578 50.5741 64.1537 50.6192 64.2379 50.6818C64.3221 50.7444 64.3929 50.8233 64.4461 50.9138C64.4993 51.0042 64.5337 51.1044 64.5475 51.2085Z" fill="white"/>
<path d="M54.0021 27.4511C54.0218 27.4207 54.0388 27.3886 54.0529 27.3552C54.2199 26.8585 54.2694 26.3299 54.1974 25.8108C54.1254 25.2918 53.9339 24.7965 53.6381 24.364C53.4416 23.8706 53.1217 23.4359 52.7092 23.1014C52.2967 22.7669 51.8052 22.5439 51.2818 22.4536C49.442 22.2956 47.6698 24.2483 45.0737 27.533C44.5636 26.7287 43.8655 26.0605 43.0396 25.5861C42.2137 25.1117 41.2848 24.8453 40.333 24.8099C39.6848 24.9099 39.0834 25.2075 38.6107 25.662C38.138 26.1165 37.817 26.7059 37.6917 27.3496C37.534 27.7296 37.4859 28.1461 37.5527 28.5521C37.6196 28.958 37.7987 29.3371 38.0698 29.6466L33.2726 30.3436C32.9572 30.3888 32.6539 30.4959 32.38 30.6586C32.106 30.8214 31.8669 31.0366 31.6763 31.2919C31.4857 31.5473 31.3474 31.8377 31.2693 32.1466C31.1912 32.4555 31.1748 32.7768 31.2211 33.0921L31.6896 36.3175C31.7048 36.423 31.7406 36.5244 31.7951 36.6161C31.8496 36.7077 31.9217 36.7876 32.0072 36.8513C32.0926 36.915 32.1898 36.9612 32.2932 36.9873C32.3966 37.0134 32.504 37.0188 32.6095 37.0032L33.2839 36.9044L35.0899 49.3206C35.1532 49.7585 35.3021 50.1796 35.5283 50.5598C35.7546 50.94 36.0536 51.2719 36.4082 51.5364C36.7629 51.8009 37.1662 51.9928 37.5952 52.1011C38.0241 52.2095 38.4702 52.2322 38.9079 52.1679L54.0049 49.9725C54.8915 49.8413 55.69 49.364 56.2253 48.6452C56.7606 47.9263 56.9891 47.0246 56.8606 46.1376L55.0547 33.7213L55.7178 33.6254C55.8236 33.6109 55.9255 33.5755 56.0175 33.5212C56.1095 33.4669 56.1897 33.3949 56.2536 33.3092C56.3174 33.2236 56.3635 33.1261 56.3893 33.0224C56.415 32.9188 56.4199 32.811 56.4035 32.7055L55.9351 29.4801C55.8603 28.9843 55.6346 28.5236 55.2888 28.1606C54.9429 27.7976 54.4937 27.5499 54.0021 27.4511ZM39.2409 27.8265C39.5231 26.9799 39.9238 26.503 40.4712 26.4155H40.5136C41.2351 26.5114 41.9241 26.775 42.5254 27.1851C43.1267 27.5953 43.6235 28.1406 43.976 28.7774L44.0183 28.8367C43.4067 28.9469 42.7882 29.0148 42.1672 29.0399C41.1715 29.2027 40.1501 29.0236 39.2691 28.5319C39.224 28.4755 39.0829 28.3203 39.2409 27.8265ZM43.152 49.8935L38.685 50.5425C38.4585 50.5757 38.2278 50.5638 38.0059 50.5077C37.784 50.4516 37.5754 50.3523 37.3919 50.2155C37.2085 50.0787 37.0538 49.9071 36.9367 49.7104C36.8197 49.5138 36.7425 49.296 36.7097 49.0695L34.9037 36.6533L41.0977 35.7531L43.152 49.8935ZM40.8606 34.1446L33.188 35.2734L32.8353 32.8522C32.8197 32.748 32.8249 32.6418 32.8505 32.5396C32.8762 32.4375 32.9218 32.3414 32.9848 32.2569C33.0477 32.1725 33.1268 32.1013 33.2173 32.0475C33.3079 31.9937 33.4082 31.9584 33.5125 31.9436L40.3922 30.9418L40.8606 34.1446ZM48.4317 49.1146L44.7633 49.648L42.7062 35.5161L46.3746 34.9827L48.4317 49.1146ZM46.1404 33.3743L42.4719 33.9076L42.0035 30.6935L45.6719 30.1601L46.1404 33.3743ZM50.9375 24.0621C51.0023 24.0568 51.0675 24.0568 51.1323 24.0621C51.4765 24.0875 51.8349 24.4515 52.1933 25.1231C52.4755 25.6198 52.7577 26.2914 52.5771 26.6328C52.2243 27.3637 49.8342 27.787 47.0603 28.278C46.8571 28.3175 46.6455 28.3598 46.431 28.3908C48.1298 26.2801 49.8681 24.2342 50.9488 24.0762L50.9375 24.0621ZM55.2437 46.3548C55.2769 46.5813 55.2651 46.812 55.2089 47.0339C55.1528 47.2558 55.0535 47.4644 54.9167 47.6479C54.7799 47.8314 54.6083 47.986 54.4116 48.1031C54.215 48.2202 53.9972 48.2973 53.7707 48.3302L50.0317 48.8748L47.9718 34.7598L53.4349 33.964L55.2437 46.3548ZM54.6793 32.127L47.746 33.1344L47.2776 29.9203L53.4264 29.0258C53.6355 28.9976 53.8472 29.0533 54.0154 29.1807C54.1835 29.3082 54.2944 29.4969 54.3238 29.7058L54.6793 32.127Z" fill="white"/>
<path d="M58.6808 25.473C57.9871 25.473 57.3089 25.2673 56.7321 24.8819C56.1553 24.4964 55.7057 23.9486 55.4402 23.3077C55.1747 22.6668 55.1053 21.9615 55.2406 21.2811C55.376 20.6007 55.71 19.9757 56.2006 19.4852C56.6911 18.9946 57.3161 18.6606 57.9965 18.5252C58.6769 18.3899 59.3822 18.4593 60.0231 18.7248C60.664 18.9903 61.2118 19.4399 61.5972 20.0167C61.9827 20.5935 62.1884 21.2717 62.1884 21.9654C62.1869 22.8952 61.8169 23.7865 61.1594 24.444C60.5019 25.1015 59.6106 25.4715 58.6808 25.473ZM58.6808 20.0296C58.2979 20.0296 57.9237 20.1431 57.6053 20.3559C57.287 20.5686 57.0389 20.8709 56.8924 21.2246C56.7458 21.5783 56.7075 21.9676 56.7822 22.3431C56.8569 22.7186 57.0413 23.0635 57.312 23.3342C57.5827 23.605 57.9276 23.7893 58.3031 23.864C58.6787 23.9387 59.0679 23.9004 59.4216 23.7539C59.7753 23.6073 60.0777 23.3592 60.2904 23.0409C60.5031 22.7225 60.6166 22.3483 60.6166 21.9654C60.6151 21.453 60.4105 20.9621 60.0476 20.6002C59.6848 20.2384 59.1932 20.0352 58.6808 20.0353V20.0296Z" fill="#FE6A84"/>
<path d="M34.8924 54.4621C34.5731 53.3179 33.8954 52.3062 32.9589 51.5753C32.0224 50.8445 30.8763 50.4331 29.6889 50.4014C29.6363 50.3961 29.5834 50.3961 29.5308 50.4014C29.0541 50.3998 28.5794 50.4634 28.1199 50.5905C27.1154 50.8537 26.2046 51.3925 25.4902 52.1462C24.7759 52.8998 24.2866 53.8382 24.0775 54.8553C23.8684 55.8724 23.948 56.9277 24.3072 57.902C24.6664 58.8763 25.2908 59.7307 26.1101 60.3688C26.9293 61.0068 27.9107 61.403 28.9432 61.5126C29.9758 61.6223 31.0185 61.441 31.9534 60.9892C32.8884 60.5374 33.6784 59.8331 34.2341 58.956C34.7898 58.0788 35.0892 57.0637 35.0984 56.0254V55.9718C35.0999 55.4614 35.0306 54.9534 34.8924 54.4621ZM29.5308 59.9619C28.5738 59.9639 27.6477 59.6225 26.9209 58.9998C26.1941 58.3771 25.7147 57.5144 25.5699 56.5683C25.4251 55.6223 25.6244 54.6556 26.1317 53.844C26.639 53.0324 27.4205 52.4297 28.3344 52.1453C28.7184 52.0277 29.1179 51.9678 29.5195 51.9675C29.6465 51.9675 29.7622 51.9675 29.8864 51.9873C30.6544 52.0558 31.3859 52.3462 31.9917 52.8232C32.5975 53.3002 33.0514 53.9432 33.298 54.6737C33.4464 55.0874 33.5209 55.5239 33.5181 55.9633C33.5234 56.0507 33.5234 56.1383 33.5181 56.2257C33.4523 57.2397 33.0034 58.1906 32.2625 58.886C31.5216 59.5813 30.5441 59.9689 29.528 59.9704L29.5308 59.9619Z" fill="#FE6A84"/>
<path d="M30.1094 27.2169C29.6071 27.2169 29.1161 27.068 28.6984 26.7889C28.2808 26.5099 27.9552 26.1132 27.763 25.6492C27.5708 25.1851 27.5205 24.6744 27.6185 24.1818C27.7165 23.6891 27.9584 23.2366 28.3136 22.8814C28.6687 22.5262 29.1213 22.2844 29.6139 22.1864C30.1066 22.0884 30.6172 22.1387 31.0813 22.3309C31.5453 22.5231 31.942 22.8486 32.2211 23.2663C32.5001 23.6839 32.6491 24.175 32.6491 24.6773C32.6491 25.3508 32.3815 25.9968 31.9052 26.4731C31.4289 26.9494 30.783 27.2169 30.1094 27.2169ZM30.1094 23.7319C29.9207 23.7319 29.7363 23.7879 29.5795 23.8927C29.4226 23.9975 29.3004 24.1464 29.2282 24.3207C29.156 24.495 29.1371 24.6868 29.1739 24.8718C29.2107 25.0568 29.3016 25.2268 29.435 25.3602C29.5683 25.4935 29.7383 25.5844 29.9233 25.6212C30.1083 25.658 30.3001 25.6391 30.4744 25.5669C30.6487 25.4947 30.7976 25.3725 30.9024 25.2156C31.0072 25.0588 31.0632 24.8744 31.0632 24.6857C31.0624 24.433 30.9617 24.1908 30.783 24.0121C30.6043 23.8334 30.3621 23.7327 30.1094 23.7319Z" fill="#FE6A84"/>
<path d="M21.4773 37.085C20.975 37.085 20.484 36.936 20.0663 36.657C19.6487 36.3779 19.3232 35.9813 19.1309 35.5172C18.9387 35.0531 18.8884 34.5425 18.9864 34.0498C19.0844 33.5572 19.3263 33.1047 19.6815 32.7495C20.0367 32.3943 20.4892 32.1524 20.9818 32.0544C21.4745 31.9564 21.9851 32.0067 22.4492 32.1989C22.9133 32.3912 23.3099 32.7167 23.589 33.1343C23.868 33.552 24.017 34.043 24.017 34.5453C24.017 35.2189 23.7494 35.8648 23.2731 36.3411C22.7969 36.8174 22.1509 37.085 21.4773 37.085ZM21.4773 33.6C21.2887 33.6 21.1043 33.6559 20.9474 33.7607C20.7906 33.8655 20.6683 34.0145 20.5961 34.1888C20.5239 34.363 20.505 34.5548 20.5418 34.7398C20.5786 34.9249 20.6695 35.0948 20.8029 35.2282C20.9363 35.3616 21.1062 35.4524 21.2912 35.4892C21.4762 35.526 21.668 35.5071 21.8423 35.435C22.0166 35.3628 22.1656 35.2405 22.2704 35.0837C22.3752 34.9268 22.4311 34.7424 22.4311 34.5538C22.4304 34.301 22.3296 34.0589 22.1509 33.8802C21.9722 33.7014 21.73 33.6007 21.4773 33.6Z" fill="#FE6A84"/>
<path d="M46.4254 21.4829C46.8991 21.4829 47.2832 21.0988 47.2832 20.6251C47.2832 20.1513 46.8991 19.7672 46.4254 19.7672C45.9516 19.7672 45.5675 20.1513 45.5675 20.6251C45.5675 21.0988 45.9516 21.4829 46.4254 21.4829Z" fill="white"/>
<path d="M61.4011 29.0342C61.8748 29.0342 62.2589 28.6502 62.2589 28.1764C62.2589 27.7026 61.8748 27.3185 61.4011 27.3185C60.9273 27.3185 60.5432 27.7026 60.5432 28.1764C60.5432 28.6502 60.9273 29.0342 61.4011 29.0342Z" fill="white"/>
<path d="M24.4769 49.7496C24.9506 49.7496 25.3347 49.3655 25.3347 48.8917C25.3347 48.4179 24.9506 48.0339 24.4769 48.0339C24.0031 48.0339 23.619 48.4179 23.619 48.8917C23.619 49.3655 24.0031 49.7496 24.4769 49.7496Z" fill="white"/>
</g>
<defs>
<radialGradient id="paint0_radial_1_1270" cx="0" cy="0" r="1" gradientUnits="userSpaceOnUse" gradientTransform="translate(40 40) scale(39.5824)">
<stop stop-color="#FE6A84"/>
<stop offset="0.993" stop-color="#FE6A84" stop-opacity="0"/>
</radialGradient>
<clipPath id="clip0_1_1270">
<rect width="80" height="80" fill="white"/>
</clipPath>
</defs>
</svg>
