<svg width="80" height="80" viewBox="0 0 80 80" fill="none" xmlns="http://www.w3.org/2000/svg">
<g clip-path="url(#clip0_1_1314)">
<path d="M40 80C62.0914 80 80 62.0914 80 40C80 17.9086 62.0914 0 40 0C17.9086 0 0 17.9086 0 40C0 62.0914 17.9086 80 40 80Z" fill="url(#paint0_radial_1_1314)"/>
<path d="M54.8684 62.5185H24.2681C24.1372 62.5187 24.0083 62.4875 23.892 62.4275C23.7757 62.3675 23.6755 62.2806 23.5998 62.1739C23.524 62.0672 23.475 61.9439 23.4567 61.8143C23.4385 61.6848 23.4516 61.5527 23.4949 61.4293L24.5869 58.2998C24.6427 58.1391 24.7471 57.9998 24.8856 57.9012C25.0242 57.8026 25.19 57.7496 25.3601 57.7496H53.7764C53.9464 57.7496 54.1123 57.8026 54.2509 57.9012C54.3894 57.9998 54.4938 58.1391 54.5495 58.2998L55.6416 61.4293C55.6849 61.5527 55.698 61.6848 55.6797 61.8143C55.6615 61.9439 55.6124 62.0672 55.5367 62.1739C55.461 62.2806 55.3608 62.3675 55.2445 62.4275C55.1282 62.4875 54.9993 62.5187 54.8684 62.5185ZM25.4222 60.879H53.7143L53.195 59.3891H25.9414L25.4222 60.879Z" fill="white"/>
<path d="M58.3704 60.6194H20.769C20.1737 60.6194 19.691 61.102 19.691 61.6973V61.7002C19.691 62.2955 20.1737 62.7781 20.769 62.7781H58.3704C58.9657 62.7781 59.4484 62.2955 59.4484 61.7002V61.6973C59.4484 61.102 58.9657 60.6194 58.3704 60.6194Z" fill="#FE6A84"/>
<path d="M52.2271 59.3919H26.9065C26.6897 59.3912 26.482 59.3047 26.3286 59.1514C26.1753 58.9981 26.0889 58.7904 26.0881 58.5736V48.46C26.0881 46.6898 26.4368 44.9369 27.1142 43.3014C27.7917 41.6659 28.7846 40.1799 30.0364 38.9281C31.2881 37.6764 32.7741 36.6835 34.4096 36.006C36.0451 35.3286 37.798 34.9799 39.5682 34.9799C41.3384 34.9799 43.0913 35.3286 44.7268 36.006C46.3623 36.6835 47.8483 37.6764 49.1001 38.9281C50.3518 40.1799 51.3447 41.6659 52.0222 43.3014C52.6996 44.9369 53.0483 46.6898 53.0483 48.46V58.5707C53.0483 58.7885 52.9618 58.9974 52.8078 59.1514C52.6538 59.3054 52.4449 59.3919 52.2271 59.3919ZM27.7276 57.7524H51.4088V48.46C51.4786 46.8616 51.224 45.2656 50.6605 43.7682C50.0969 42.2708 49.236 40.903 48.1296 39.7472C47.0232 38.5915 45.6943 37.6717 44.2229 37.0433C42.7515 36.4149 41.1682 36.091 39.5682 36.091C37.9683 36.091 36.3849 36.4149 34.9135 37.0433C33.4421 37.6717 32.1132 38.5915 31.0068 39.7472C29.9004 40.903 29.0395 42.2708 28.4759 43.7682C27.9124 45.2656 27.6578 46.8616 27.7276 48.46V57.7524Z" fill="white"/>
<path d="M42.5227 36.9665C42.3059 36.9657 42.0982 36.8793 41.9449 36.726C41.7916 36.5727 41.7051 36.3649 41.7044 36.1481V32.6123H37.4349V36.1481C37.4349 36.3655 37.3485 36.5741 37.1948 36.7278C37.0411 36.8815 36.8326 36.9679 36.6152 36.9679C36.3978 36.9679 36.1892 36.8815 36.0355 36.7278C35.8818 36.5741 35.7954 36.3655 35.7954 36.1481V31.794C35.7962 31.5772 35.8826 31.3695 36.0359 31.2162C36.1892 31.0628 36.3969 30.9764 36.6138 30.9756H42.5227C42.7396 30.9764 42.9473 31.0628 43.1006 31.2162C43.2539 31.3695 43.3403 31.5772 43.3411 31.794V36.1481C43.3403 36.3649 43.2539 36.5727 43.1006 36.726C42.9473 36.8793 42.7396 36.9657 42.5227 36.9665Z" fill="white"/>
<path d="M48.6828 32.6123H30.4536C28.9999 32.5891 27.5875 32.1246 26.4038 31.2805C25.22 30.4364 24.3207 29.2525 23.825 27.8857C23.7622 27.7611 23.7321 27.6226 23.7377 27.4832C23.7433 27.3438 23.7843 27.2081 23.8569 27.0889C23.9295 26.9697 24.0312 26.871 24.1525 26.8021C24.2738 26.7331 24.4107 26.6962 24.5502 26.6949H54.5805C54.7208 26.6945 54.8589 26.7302 54.9814 26.7986C55.1039 26.8669 55.2068 26.9656 55.2802 27.0852C55.3536 27.2047 55.395 27.3412 55.4005 27.4814C55.4059 27.6216 55.3753 27.7608 55.3114 27.8857C54.8161 29.2527 53.9168 30.4368 52.733 31.281C51.5492 32.1252 50.1367 32.5895 48.6828 32.6123ZM25.9611 28.3344C26.3862 29.1517 27.0326 29.8328 27.8266 30.2999C28.6205 30.767 29.5299 31.0012 30.4507 30.9757H48.68C49.6009 31.0015 50.5104 30.7675 51.3044 30.3003C52.0985 29.8332 52.7449 29.1519 53.1696 28.3344H25.9611Z" fill="white"/>
<path d="M51.5641 28.3344C51.4433 28.3344 51.324 28.3078 51.2147 28.2564C51.1054 28.2051 51.0088 28.1302 50.9317 28.0373C50.8546 27.9443 50.799 27.8355 50.7688 27.7186C50.7386 27.6016 50.7346 27.4795 50.757 27.3608C50.8509 26.8511 50.8196 26.3261 50.6658 25.8311C50.5119 25.3361 50.2401 24.8859 49.8737 24.5192C49.3901 24.2595 48.8523 24.1166 48.3035 24.1019C47.7548 24.0872 47.2102 24.2011 46.7133 24.4345C46.5913 24.4905 46.4575 24.5157 46.3235 24.508C46.1896 24.5003 46.0595 24.4598 45.9448 24.3902C45.8301 24.3206 45.7342 24.224 45.6655 24.1087C45.5967 23.9934 45.5573 23.8631 45.5506 23.7291C45.5119 23.0469 45.3383 22.3791 45.04 21.7644C44.7417 21.1497 44.3246 20.6001 43.8127 20.1475C43.3008 19.6949 42.7043 19.3482 42.0576 19.1275C41.411 18.9067 40.727 18.8163 40.0452 18.8614C38.644 18.7906 37.2709 19.272 36.2205 20.202C35.1702 21.1321 34.5262 22.4369 34.4268 23.8363C34.4169 23.9635 34.3776 24.0866 34.3121 24.1961C34.2465 24.3055 34.1564 24.3982 34.0489 24.4668C33.9413 24.5355 33.8194 24.5783 33.6925 24.5918C33.5656 24.6053 33.4374 24.5891 33.3178 24.5446C32.1462 24.1132 30.8608 24.1042 29.6833 24.5192C28.2949 25.1823 28.3288 27.4652 28.3288 27.4878C28.3325 27.5955 28.315 27.7029 28.2771 27.8038C28.2393 27.9047 28.1819 27.9972 28.1082 28.0758C28.0345 28.1545 27.946 28.2178 27.8478 28.2622C27.7496 28.3066 27.6436 28.3311 27.5358 28.3344C27.3203 28.3348 27.1127 28.253 26.9554 28.1057C26.7981 27.9583 26.7029 27.7565 26.6893 27.5414C26.638 26.6538 26.8228 25.7684 27.2248 24.9754C27.6268 24.1823 28.2316 23.5099 28.9778 23.0264C30.2283 22.5046 31.6136 22.3997 32.9284 22.7273C33.2505 21.1041 34.1484 19.6519 35.4568 18.6386C36.7652 17.6253 38.3958 17.1191 40.048 17.2134C41.6692 17.1087 43.2732 17.5972 44.5608 18.5879C45.8484 19.5785 46.7318 21.0036 47.0462 22.5975C47.6909 22.4062 48.3703 22.3624 49.0341 22.4694C49.698 22.5764 50.3293 22.8314 50.8812 23.2155C51.487 23.767 51.9415 24.4646 52.2014 25.2416C52.4612 26.0186 52.5177 26.8492 52.3655 27.6543C52.333 27.8437 52.2349 28.0157 52.0884 28.14C51.9418 28.2643 51.7562 28.3332 51.5641 28.3344Z" fill="#FE6A84"/>
<path d="M32.6716 54.2674H26.9065C26.6891 54.2674 26.4806 54.181 26.3269 54.0273C26.1732 53.8735 26.0868 53.665 26.0868 53.4476C26.0868 53.2302 26.1732 53.0217 26.3269 52.868C26.4806 52.7142 26.6891 52.6279 26.9065 52.6279H32.6716C32.889 52.6279 33.0975 52.7142 33.2513 52.868C33.405 53.0217 33.4914 53.2302 33.4914 53.4476C33.4914 53.665 33.405 53.8735 33.2513 54.0273C33.0975 54.181 32.889 54.2674 32.6716 54.2674Z" fill="white"/>
<path d="M52.2271 54.2674H46.4649C46.2475 54.2674 46.039 54.181 45.8852 54.0273C45.7315 53.8735 45.6451 53.665 45.6451 53.4476C45.6451 53.2302 45.7315 53.0217 45.8852 52.868C46.039 52.7142 46.2475 52.6279 46.4649 52.6279H52.23C52.4474 52.6279 52.6559 52.7142 52.8096 52.868C52.9634 53.0217 53.0497 53.2302 53.0497 53.4476C53.0497 53.665 52.9634 53.8735 52.8096 54.0273C52.6559 54.181 52.4474 54.2674 52.23 54.2674H52.2271Z" fill="white"/>
<path d="M39.5683 53.3107C38.3661 53.3107 37.1909 52.9542 36.1914 52.2864C35.1918 51.6185 34.4127 50.6692 33.9527 49.5585C33.4926 48.4478 33.3723 47.2257 33.6068 46.0466C33.8413 44.8675 34.4202 43.7845 35.2703 42.9344C36.1204 42.0843 37.2034 41.5054 38.3825 41.2709C39.5616 41.0364 40.7837 41.1567 41.8944 41.6168C43.005 42.0769 43.9543 42.8559 44.6222 43.8555C45.2901 44.8551 45.6466 46.0303 45.6466 47.2324C45.6444 48.8438 45.0033 50.3885 43.8638 51.528C42.7244 52.6674 41.1797 53.3085 39.5683 53.3107ZM39.5683 42.7908C38.6911 42.7936 37.8344 43.0562 37.1064 43.5455C36.3783 44.0348 35.8116 44.7289 35.4777 45.54C35.1438 46.3512 35.0578 47.2431 35.2304 48.1031C35.4031 48.9632 35.8266 49.7528 36.4477 50.3723C37.0687 50.9917 37.8594 51.4133 38.7199 51.5838C39.5804 51.7542 40.472 51.6659 41.2824 51.33C42.0927 50.994 42.7853 50.4255 43.2727 49.6962C43.7602 48.967 44.0206 48.1096 44.0212 47.2324C44.0208 46.6483 43.9053 46.07 43.6813 45.5305C43.4572 44.9911 43.129 44.5011 42.7155 44.0886C42.3019 43.676 41.8111 43.3491 41.2711 43.1264C40.731 42.9037 40.1524 42.7897 39.5683 42.7908Z" fill="white"/>
<path d="M20.0127 42.2124C19.4959 42.2124 18.9907 42.0591 18.561 41.772C18.1313 41.4849 17.7963 41.0768 17.5986 40.5993C17.4008 40.1218 17.349 39.5964 17.4499 39.0895C17.5507 38.5827 17.7996 38.1171 18.165 37.7516C18.5304 37.3862 18.996 37.1373 19.5029 37.0365C20.0098 36.9357 20.5352 36.9874 21.0127 37.1852C21.4902 37.3829 21.8983 37.7179 22.1854 38.1476C22.4725 38.5773 22.6258 39.0825 22.6258 39.5993C22.625 40.2921 22.3495 40.9563 21.8596 41.4462C21.3697 41.9361 20.7055 42.2116 20.0127 42.2124ZM20.0127 38.6258C19.8202 38.6258 19.6319 38.6829 19.4718 38.7898C19.3117 38.8968 19.187 39.0489 19.1133 39.2268C19.0396 39.4047 19.0203 39.6004 19.0579 39.7892C19.0954 39.9781 19.1882 40.1516 19.3243 40.2877C19.4605 40.4239 19.6339 40.5166 19.8228 40.5542C20.0116 40.5917 20.2074 40.5724 20.3853 40.4988C20.5632 40.4251 20.7152 40.3003 20.8222 40.1402C20.9292 39.9801 20.9863 39.7919 20.9863 39.5993C20.9863 39.3411 20.8837 39.0935 20.7011 38.9109C20.5185 38.7283 20.2709 38.6258 20.0127 38.6258Z" fill="#FE6A84"/>
<path d="M59.4455 45.133C58.8215 45.133 58.2116 44.948 57.6928 44.6013C57.1739 44.2547 56.7696 43.7619 56.5308 43.1855C56.292 42.609 56.2295 41.9747 56.3513 41.3627C56.473 40.7507 56.7735 40.1886 57.2147 39.7473C57.6559 39.3061 58.218 39.0057 58.83 38.8839C59.442 38.7622 60.0763 38.8247 60.6528 39.0635C61.2293 39.3022 61.722 39.7066 62.0687 40.2254C62.4153 40.7442 62.6004 41.3542 62.6004 41.9782C62.5996 42.8146 62.267 43.6167 61.6755 44.2081C61.084 44.7996 60.282 45.1323 59.4455 45.133ZM59.4455 40.4628C59.1458 40.4628 58.8528 40.5517 58.6036 40.7182C58.3544 40.8847 58.1602 41.1214 58.0455 41.3983C57.9308 41.6752 57.9008 41.9798 57.9593 42.2738C58.0177 42.5677 58.1621 42.8377 58.374 43.0497C58.5859 43.2616 58.8559 43.4059 59.1499 43.4644C59.4438 43.5229 59.7485 43.4928 60.0254 43.3782C60.3023 43.2635 60.539 43.0692 60.7055 42.82C60.872 42.5708 60.9608 42.2779 60.9608 41.9782C60.9601 41.5768 60.8001 41.192 60.516 40.9085C60.2319 40.6249 59.8469 40.4656 59.4455 40.4656V40.4628Z" fill="#FE6A84"/>
<path d="M58.5482 23.794C57.9962 23.794 57.4566 23.6303 56.9977 23.3237C56.5387 23.017 56.181 22.5811 55.9698 22.0712C55.7585 21.5612 55.7033 21.0001 55.811 20.4587C55.9186 19.9173 56.1844 19.4201 56.5747 19.0298C56.965 18.6395 57.4623 18.3737 58.0037 18.266C58.5451 18.1583 59.1062 18.2136 59.6162 18.4248C60.1261 18.636 60.562 18.9937 60.8686 19.4527C61.1753 19.9116 61.339 20.4512 61.339 21.0032C61.3382 21.7431 61.044 22.4525 60.5207 22.9758C59.9975 23.499 59.2881 23.7933 58.5482 23.794ZM58.5482 19.8434C58.3204 19.8434 58.0978 19.9109 57.9085 20.0374C57.7192 20.1639 57.5716 20.3437 57.4845 20.5541C57.3973 20.7645 57.3745 20.996 57.419 21.2193C57.4634 21.4427 57.573 21.6478 57.734 21.8088C57.8951 21.9698 58.1002 22.0795 58.3235 22.1239C58.5469 22.1683 58.7784 22.1455 58.9887 22.0584C59.1991 21.9712 59.3789 21.8237 59.5054 21.6343C59.632 21.445 59.6995 21.2224 59.6995 20.9947C59.6965 20.6913 59.5739 20.4014 59.3583 20.1879C59.1427 19.9744 58.8516 19.8547 58.5482 19.8547V19.8434Z" fill="#FE6A84"/>
<path d="M22.558 52.7661C23.2188 52.7661 23.7545 52.2304 23.7545 51.5696C23.7545 50.9088 23.2188 50.3732 22.558 50.3732C21.8973 50.3732 21.3616 50.9088 21.3616 51.5696C21.3616 52.2304 21.8973 52.7661 22.558 52.7661Z" fill="white"/>
<path d="M55.5964 35.9986C56.1559 35.9986 56.6095 35.545 56.6095 34.9855C56.6095 34.426 56.1559 33.9725 55.5964 33.9725C55.0369 33.9725 54.5834 34.426 54.5834 34.9855C54.5834 35.545 55.0369 35.9986 55.5964 35.9986Z" fill="white"/>
<path d="M58.4663 53.0822C59.2144 53.0822 59.8208 52.4757 59.8208 51.7277C59.8208 50.9796 59.2144 50.3732 58.4663 50.3732C57.7182 50.3732 57.1118 50.9796 57.1118 51.7277C57.1118 52.4757 57.7182 53.0822 58.4663 53.0822Z" fill="white"/>
<path d="M39.5682 43.7389C39.3514 43.7382 39.1437 43.6517 38.9904 43.4984C38.8371 43.3451 38.7506 43.1374 38.7499 42.9206V41.0074C38.7499 40.79 38.8362 40.5815 38.99 40.4277C39.1437 40.274 39.3522 40.1876 39.5696 40.1876C39.787 40.1876 39.9956 40.274 40.1493 40.4277C40.303 40.5815 40.3894 40.79 40.3894 41.0074V42.9206C40.3886 43.1379 40.3018 43.346 40.1479 43.4994C39.994 43.6528 39.7855 43.7389 39.5682 43.7389Z" fill="#FE6A84"/>
<path d="M36.5263 45.0088C36.3093 45.0087 36.1012 44.9224 35.9478 44.7689L34.5962 43.4173C34.4424 43.2635 34.356 43.0549 34.356 42.8374C34.356 42.6199 34.4424 42.4113 34.5962 42.2575C34.75 42.1037 34.9585 42.0173 35.1761 42.0173C35.3936 42.0173 35.6021 42.1037 35.7559 42.2575L37.1076 43.6091C37.227 43.7228 37.3092 43.8698 37.3437 44.0309C37.3781 44.1921 37.3631 44.3598 37.3006 44.5123C37.238 44.6648 37.131 44.7948 36.9933 44.8854C36.8557 44.976 36.6939 45.023 36.5291 45.0201L36.5263 45.0088Z" fill="#FE6A84"/>
<path d="M35.2734 48.0508H33.3602C33.1427 48.0508 32.9342 47.9645 32.7805 47.8107C32.6268 47.657 32.5404 47.4485 32.5404 47.2311C32.5404 47.0137 32.6268 46.8051 32.7805 46.6514C32.9342 46.4977 33.1427 46.4113 33.3602 46.4113H35.2734C35.4908 46.4113 35.6993 46.4977 35.853 46.6514C36.0068 46.8051 36.0931 47.0137 36.0931 47.2311C36.0931 47.4485 36.0068 47.657 35.853 47.8107C35.6993 47.9645 35.4908 48.0508 35.2734 48.0508Z" fill="#FE6A84"/>
<path d="M35.1718 52.4473C35.0071 52.4501 34.8453 52.4032 34.7076 52.3126C34.57 52.222 34.4629 52.092 34.4004 51.9395C34.3379 51.787 34.3229 51.6192 34.3573 51.4581C34.3917 51.297 34.474 51.15 34.5933 51.0363L35.945 49.6847C36.0988 49.5309 36.3074 49.4445 36.5249 49.4445C36.7424 49.4445 36.951 49.5309 37.1048 49.6847C37.2586 49.8385 37.345 50.047 37.345 50.2646C37.345 50.4821 37.2586 50.6906 37.1048 50.8444L35.7531 52.1961C35.6778 52.2745 35.5876 52.3371 35.4877 52.3802C35.3879 52.4233 35.2805 52.4461 35.1718 52.4473Z" fill="#FE6A84"/>
<path d="M39.5682 54.2674C39.3514 54.2666 39.1437 54.1802 38.9904 54.0269C38.8371 53.8736 38.7506 53.6659 38.7499 53.449V51.5358C38.7499 51.3184 38.8362 51.1099 38.99 50.9562C39.1437 50.8024 39.3522 50.7161 39.5696 50.7161C39.787 50.7161 39.9956 50.8024 40.1493 50.9562C40.303 51.1099 40.3894 51.3184 40.3894 51.5358V53.449C40.3886 53.6663 40.3018 53.8745 40.1479 54.0279C39.994 54.1813 39.7855 54.2674 39.5682 54.2674Z" fill="#FE6A84"/>
<path d="M43.9619 52.4473C43.7449 52.4472 43.5368 52.3609 43.3834 52.2074L42.0317 50.8557C41.9556 50.7796 41.8951 50.6892 41.8539 50.5897C41.8127 50.4902 41.7915 50.3835 41.7915 50.2758C41.7915 50.1681 41.8127 50.0615 41.8539 49.962C41.8951 49.8625 41.9556 49.7721 42.0317 49.696C42.1079 49.6198 42.1983 49.5594 42.2978 49.5182C42.3973 49.477 42.5039 49.4557 42.6116 49.4557C42.7193 49.4557 42.8259 49.477 42.9254 49.5182C43.0249 49.5594 43.1153 49.6198 43.1915 49.696L44.5432 51.0476C44.6625 51.1612 44.7448 51.3082 44.7792 51.4694C44.8136 51.6305 44.7986 51.7983 44.7361 51.9508C44.6736 52.1032 44.5665 52.2333 44.4289 52.3239C44.2912 52.4145 44.1294 52.4614 43.9647 52.4586L43.9619 52.4473Z" fill="#FE6A84"/>
<path d="M45.7849 48.0508H43.8716C43.6542 48.0508 43.4457 47.9645 43.292 47.8107C43.1382 47.657 43.0519 47.4485 43.0519 47.2311C43.0519 47.0137 43.1382 46.8051 43.292 46.6514C43.4457 46.4977 43.6542 46.4113 43.8716 46.4113H45.7849C46.0023 46.4113 46.2108 46.4977 46.3645 46.6514C46.5182 46.8051 46.6046 47.0137 46.6046 47.2311C46.6046 47.4485 46.5182 47.657 46.3645 47.8107C46.2108 47.9645 46.0023 48.0508 45.7849 48.0508Z" fill="#FE6A84"/>
<path d="M42.6102 45.0088C42.4454 45.0117 42.2836 44.9647 42.146 44.8741C42.0083 44.7835 41.9013 44.6535 41.8388 44.501C41.7762 44.3485 41.7612 44.1808 41.7956 44.0196C41.8301 43.8585 41.9123 43.7115 42.0317 43.5979L43.3834 42.2462C43.5372 42.0924 43.7458 42.006 43.9633 42.006C44.1808 42.006 44.3894 42.0924 44.5431 42.2462C44.6969 42.4 44.7834 42.6086 44.7834 42.8261C44.7834 43.0436 44.6969 43.2522 44.5431 43.406L43.1915 44.7576C43.1161 44.836 43.0259 44.8986 42.9261 44.9417C42.8263 44.9848 42.7189 45.0076 42.6102 45.0088Z" fill="#FE6A84"/>
</g>
<defs>
<radialGradient id="paint0_radial_1_1314" cx="0" cy="0" r="1" gradientUnits="userSpaceOnUse" gradientTransform="translate(40 40) scale(39.5824)">
<stop stop-color="#FE6A84"/>
<stop offset="0.993" stop-color="#FE6A84" stop-opacity="0"/>
</radialGradient>
<clipPath id="clip0_1_1314">
<rect width="80" height="80" fill="white"/>
</clipPath>
</defs>
</svg>
