<svg width="80" height="80" viewBox="0 0 80 80" fill="none" xmlns="http://www.w3.org/2000/svg">
<path d="M40 80C62.0914 80 80 62.0914 80 40C80 17.9086 62.0914 0 40 0C17.9086 0 0 17.9086 0 40C0 62.0914 17.9086 80 40 80Z" fill="url(#paint0_radial_1_1297)"/>
<path d="M51.1154 54.9503H47.5231L46.5326 51.0476H48.508C48.6279 51.0476 48.7464 51.0204 48.8544 50.9681C48.9624 50.9158 49.0571 50.8398 49.1316 50.7457L51.1859 48.206C51.2805 48.0887 51.3406 47.9474 51.3596 47.7979C51.3785 47.6485 51.3555 47.4966 51.2931 47.3595C51.2281 47.2207 51.1247 47.1034 50.9952 47.0214C50.8657 46.9394 50.7155 46.8962 50.5623 46.8967H29.4349C29.2817 46.8962 29.1315 46.9394 29.002 47.0214C28.8725 47.1034 28.7691 47.2207 28.7041 47.3595C28.6417 47.4966 28.6187 47.6485 28.6376 47.7979C28.6566 47.9474 28.7167 48.0887 28.8113 48.206L30.8656 50.7457C30.9401 50.8398 31.0349 50.9158 31.1429 50.9681C31.2508 51.0204 31.3693 51.0476 31.4893 51.0476H33.4646L32.4741 54.9503H28.8762C28.1318 54.9737 27.4256 55.2858 26.9073 55.8207C26.389 56.3555 26.0991 57.0711 26.0991 57.8159C26.0991 58.5607 26.389 59.2763 26.9073 59.8111C27.4256 60.346 28.1318 60.6581 28.8762 60.6815H51.1154C51.8598 60.6581 52.5659 60.346 53.0843 59.8111C53.6026 59.2763 53.8924 58.5607 53.8924 57.8159C53.8924 57.0711 53.6026 56.3555 53.0843 55.8207C52.5659 55.2858 51.8598 54.9737 51.1154 54.9503ZM48.8579 48.5192L48.1157 49.4335H46.1263L45.9005 48.5192H48.8579ZM35.1238 51.0589L35.5217 49.4448L35.7587 48.5305H44.2244L44.4614 49.4448L44.8593 51.0589L45.8497 54.9616H34.1446L35.1238 51.0589ZM31.8871 49.4335L31.145 48.5192H34.1023L33.8766 49.4335H31.8871ZM51.1266 59.0702H28.8762C28.5439 59.0702 28.2252 58.9382 27.9903 58.7032C27.7553 58.4683 27.6233 58.1496 27.6233 57.8173C27.6233 57.485 27.7553 57.1663 27.9903 56.9314C28.2252 56.6964 28.5439 56.5644 28.8762 56.5644H51.1154C51.4477 56.5644 51.7663 56.6964 52.0013 56.9314C52.2363 57.1663 52.3683 57.485 52.3683 57.8173C52.3683 58.1496 52.2363 58.4683 52.0013 58.7032C51.7663 58.9382 51.4477 59.0702 51.1154 59.0702H51.1266Z" fill="#FE6A84"/>
<path d="M31.5682 20.6928C31.4231 20.6924 31.2807 20.6529 31.1561 20.5784C31.0316 20.504 30.9294 20.3973 30.8603 20.2696C30.7913 20.1419 30.758 19.998 30.7638 19.853C30.7697 19.7079 30.8146 19.5672 30.8938 19.4455C31.0544 19.2587 31.1688 19.0367 31.2276 18.7974C31.2864 18.5582 31.2881 18.3084 31.2324 18.0684C31.091 17.852 30.901 17.6715 30.6777 17.5412C30.4543 17.4109 30.2037 17.3344 29.9457 17.3178C29.7856 17.2882 29.6383 17.211 29.523 17.0961C29.4077 16.9813 29.3297 16.8343 29.2995 16.6744C29.1216 16.5403 28.9183 16.4436 28.702 16.3903C28.4857 16.3369 28.2608 16.328 28.0409 16.364C27.7818 16.3867 27.5373 16.4936 27.3446 16.6684C27.152 16.8432 27.0219 17.0762 26.9742 17.3319C26.9335 17.4882 26.8471 17.6287 26.7259 17.7355C26.1333 18.2575 26.8614 19.4286 26.8698 19.4483C26.9778 19.6275 27.012 19.8415 26.9652 20.0454C26.9185 20.2493 26.7944 20.427 26.6191 20.5412C26.4438 20.6553 26.2311 20.697 26.0257 20.6574C25.8203 20.6177 25.6384 20.4999 25.5182 20.3288C25.1257 19.8076 24.9102 19.1746 24.9031 18.5222C24.896 17.8698 25.0977 17.2323 25.4786 16.7027C25.6676 16.2056 25.9833 15.7667 26.3944 15.4295C26.8055 15.0922 27.2977 14.8684 27.8221 14.7803C28.3464 14.6921 28.8847 14.7427 29.3835 14.927C29.8823 15.1112 30.3241 15.4228 30.6652 15.8307C31.1062 15.9242 31.52 16.1172 31.8751 16.395C32.2301 16.6728 32.517 17.028 32.7139 17.4335C32.8906 17.9139 32.9403 18.4318 32.8582 18.937C32.7762 19.4422 32.5651 19.9177 32.2455 20.3175C32.1731 20.4318 32.0732 20.5261 31.9548 20.5916C31.8365 20.6572 31.7035 20.692 31.5682 20.6928Z" fill="#FE6A84"/>
<path d="M53.3926 20.6927C53.2475 20.6924 53.1051 20.6529 52.9805 20.5784C52.8559 20.5039 52.7537 20.3972 52.6847 20.2696C52.6157 20.1419 52.5823 19.998 52.5882 19.8529C52.5941 19.7079 52.639 19.5671 52.7182 19.4455C52.8791 19.2572 52.9932 19.0335 53.051 18.7927C53.1089 18.5519 53.109 18.3008 53.0512 18.0599C52.9097 17.8435 52.7198 17.663 52.4964 17.5327C52.2731 17.4024 52.0224 17.3259 51.7644 17.3093C51.6044 17.2797 51.457 17.2025 51.3417 17.0876C51.2264 16.9728 51.1485 16.8258 51.1182 16.6659C50.9402 16.532 50.7369 16.4354 50.5206 16.382C50.3043 16.3287 50.0795 16.3197 49.8596 16.3555C49.6005 16.3782 49.356 16.4852 49.1634 16.6599C48.9708 16.8347 48.8407 17.0678 48.793 17.3234C48.7523 17.4797 48.6658 17.6202 48.5446 17.727C47.952 18.249 48.6801 19.4201 48.6885 19.4398C48.7965 19.619 48.8307 19.833 48.7839 20.0369C48.7372 20.2408 48.6131 20.4185 48.4378 20.5327C48.2625 20.6468 48.0498 20.6885 47.8444 20.6489C47.6391 20.6092 47.4571 20.4914 47.3369 20.3203C46.9445 19.7991 46.729 19.1661 46.7219 18.5137C46.7148 17.8613 46.9164 17.2238 47.2974 16.6942C47.487 16.1972 47.8035 15.7585 48.2152 15.4217C48.627 15.0849 49.1197 14.8617 49.6445 14.7744C50.1692 14.6871 50.7077 14.7387 51.2063 14.924C51.705 15.1093 52.1464 15.4219 52.4868 15.8307C52.9278 15.9242 53.3416 16.1172 53.6966 16.395C54.0517 16.6728 54.3386 17.028 54.5355 17.4335C54.7125 17.9136 54.7627 18.4314 54.6811 18.9366C54.5996 19.4418 54.389 19.9174 54.0699 20.3174C53.9975 20.4318 53.8975 20.526 53.7792 20.5916C53.6608 20.6572 53.5279 20.692 53.3926 20.6927Z" fill="#FE6A84"/>
<path d="M27.8687 39.3538C27.7236 39.3534 27.5812 39.3139 27.4566 39.2394C27.332 39.165 27.2298 39.0583 27.1608 38.9306C27.0918 38.8029 27.0584 38.659 27.0643 38.514C27.0702 38.3689 27.1151 38.2282 27.1943 38.1065C27.3549 37.9197 27.4692 37.6977 27.5281 37.4584C27.5869 37.2192 27.5886 36.9694 27.5329 36.7294C27.3916 36.5128 27.2017 36.3322 26.9783 36.2019C26.755 36.0716 26.5042 35.9952 26.2462 35.9788C26.0861 35.9492 25.9388 35.872 25.8235 35.7571C25.7082 35.6423 25.6302 35.4953 25.5999 35.3354C25.4223 35.2009 25.219 35.1039 25.0026 35.0506C24.7863 34.9972 24.5613 34.9885 24.3414 35.025C24.0821 35.0473 23.8373 35.154 23.6446 35.3289C23.4519 35.5038 23.322 35.7371 23.2747 35.9929C23.234 36.1492 23.1475 36.2897 23.0264 36.3965C22.4338 36.9185 23.1619 38.0896 23.1703 38.1093C23.2728 38.2883 23.3028 38.4997 23.2543 38.7002C23.2058 38.9006 23.0824 39.0749 22.9094 39.1872C22.7364 39.2995 22.527 39.3413 22.3242 39.3041C22.1213 39.2668 21.9404 39.1534 21.8186 38.9869C21.4258 38.4659 21.21 37.8329 21.2029 37.1804C21.1958 36.5279 21.3977 35.8903 21.7791 35.3608C21.9687 34.7519 22.359 34.2251 22.8863 33.8664C23.4136 33.5077 24.0468 33.3382 24.6828 33.3855C25.1215 33.3812 25.5553 33.4773 25.951 33.6666C26.3467 33.8559 26.6938 34.1333 26.9657 34.4776C27.4463 34.5575 27.8966 34.765 28.2695 35.0785C28.6425 35.3919 28.9244 35.7997 29.0859 36.2593C29.2474 36.719 29.2825 37.2135 29.1875 37.6914C29.0925 38.1692 28.871 38.6127 28.546 38.9757C28.4741 39.0907 28.3744 39.1856 28.256 39.2518C28.1375 39.3179 28.0043 39.353 27.8687 39.3538Z" fill="#FE6A84"/>
<path d="M57.6593 39.3538C57.5141 39.3534 57.3717 39.3139 57.2472 39.2394C57.1226 39.165 57.0204 39.0583 56.9513 38.9306C56.8823 38.8029 56.849 38.659 56.8549 38.514C56.8608 38.3689 56.9057 38.2282 56.9848 38.1065C57.1454 37.9197 57.2598 37.6977 57.3186 37.4584C57.3774 37.2192 57.3791 36.9694 57.3234 36.7294C57.1821 36.5128 56.9923 36.3322 56.7689 36.2019C56.5455 36.0716 56.2948 35.9952 56.0367 35.9788C55.8767 35.9492 55.7293 35.872 55.614 35.7571C55.4987 35.6423 55.4208 35.4953 55.3905 35.3354C55.2127 35.201 55.0095 35.1042 54.7931 35.0508C54.5767 34.9974 54.3518 34.9887 54.1319 35.025C53.8727 35.0473 53.6279 35.154 53.4352 35.3289C53.2425 35.5038 53.1125 35.7371 53.0653 35.9929C53.0246 36.1492 52.9381 36.2897 52.8169 36.3965C52.2243 36.9185 52.9524 38.0896 52.9608 38.1093C53.0633 38.2883 53.0934 38.4997 53.0448 38.7002C52.9963 38.9006 52.8729 39.0749 52.6999 39.1872C52.527 39.2995 52.3175 39.3413 52.1147 39.3041C51.9119 39.2668 51.731 39.1534 51.6092 38.9869C51.2163 38.4659 51.0006 37.8329 50.9935 37.1804C50.9864 36.5279 51.1883 35.8903 51.5697 35.3608C51.7592 34.7519 52.1495 34.2251 52.6768 33.8664C53.2041 33.5077 53.8374 33.3382 54.4734 33.3855C54.912 33.3812 55.3458 33.4773 55.7415 33.6666C56.1373 33.8559 56.4844 34.1333 56.7563 34.4776C57.2368 34.5575 57.6871 34.765 58.0601 35.0785C58.433 35.3919 58.715 35.7997 58.8764 36.2593C59.0379 36.719 59.073 37.2135 58.978 37.6914C58.883 38.1692 58.6615 38.6127 58.3365 38.9757C58.2647 39.0907 58.1649 39.1856 58.0465 39.2518C57.9281 39.3179 57.7949 39.353 57.6593 39.3538Z" fill="#FE6A84"/>
<path d="M60.2977 44.2187H44.2328V32.3894H45.1047C45.2212 32.3901 45.3365 32.3651 45.4423 32.3164C45.5481 32.2676 45.6419 32.1962 45.7171 32.1072L47.6303 29.8497H56.6208C57.1911 29.8497 57.738 29.6232 58.1413 29.2199C58.5445 28.8167 58.771 28.2697 58.771 27.6995C58.771 27.1292 58.5445 26.5822 58.1413 26.179C57.738 25.7757 57.1911 25.5492 56.6208 25.5492H23.3679C22.7976 25.5492 22.2507 25.7757 21.8474 26.179C21.4442 26.5822 21.2176 27.1292 21.2176 27.6995C21.2176 28.2697 21.4442 28.8167 21.8474 29.2199C22.2507 29.6232 22.7976 29.8497 23.3679 29.8497H32.3584L34.2716 32.1072C34.3475 32.1953 34.4415 32.2661 34.5471 32.3148C34.6527 32.3635 34.7676 32.3889 34.8839 32.3894H35.7559V44.2187H19.7023C19.132 44.2187 18.5851 44.4452 18.1818 44.8485C17.7785 45.2517 17.552 45.7987 17.552 46.3689C17.552 46.9392 17.7785 47.4862 18.1818 47.8894C18.5851 48.2927 19.132 48.5192 19.7023 48.5192H60.2977C60.868 48.5192 61.4149 48.2927 61.8181 47.8894C62.2214 47.4862 62.4479 46.9392 62.4479 46.3689C62.4479 45.7987 62.2214 45.2517 61.8181 44.8485C61.4149 44.4452 60.868 44.2187 60.2977 44.2187ZM23.3679 28.2384C23.2249 28.2384 23.0878 28.1817 22.9868 28.0806C22.8857 27.9795 22.8289 27.8424 22.8289 27.6995C22.8311 27.5572 22.8886 27.4214 22.9892 27.3208C23.0898 27.2202 23.2256 27.1627 23.3679 27.1605H56.6208C56.7631 27.1627 56.8989 27.2202 56.9995 27.3208C57.1001 27.4214 57.1576 27.5572 57.1598 27.6995C57.1598 27.8424 57.103 27.9795 57.0019 28.0806C56.9008 28.1817 56.7637 28.2384 56.6208 28.2384H23.3679ZM35.2621 30.7781L34.4889 29.8525H45.4942L44.721 30.7781H43.4201C43.3138 30.777 43.2083 30.7971 43.1099 30.8372C43.0115 30.8774 42.922 30.9368 42.8469 31.012C42.7717 31.0871 42.7123 31.1766 42.6721 31.275C42.632 31.3734 42.6119 31.4789 42.613 31.5852V44.2187H37.3643V31.5824C37.3655 31.4761 37.3454 31.3706 37.3052 31.2722C37.2651 31.1737 37.2057 31.0843 37.1305 31.0092C37.0553 30.934 36.9659 30.8746 36.8675 30.8344C36.769 30.7943 36.6636 30.7742 36.5573 30.7753L35.2621 30.7781ZM60.2977 46.9079H19.7023C19.5593 46.9079 19.4222 46.8511 19.3212 46.7501C19.2201 46.649 19.1633 46.5119 19.1633 46.3689C19.1625 46.298 19.176 46.2275 19.2028 46.1618C19.2296 46.0961 19.2693 46.0364 19.3195 45.9862C19.3697 45.936 19.4294 45.8963 19.4951 45.8695C19.5609 45.8426 19.6313 45.8292 19.7023 45.83H60.2977C60.4406 45.83 60.5777 45.8868 60.6788 45.9878C60.7799 46.0889 60.8367 46.226 60.8367 46.3689C60.8345 46.5112 60.777 46.647 60.6764 46.7476C60.5758 46.8483 60.4399 46.9057 60.2977 46.9079Z" fill="white"/>
<path d="M32.0338 27.1661H25.3968C25.2104 27.1658 25.0299 27.101 24.8858 26.9827C24.7418 26.8644 24.6432 26.6999 24.6067 26.5171L23.3171 20.0353C23.2942 19.9185 23.2974 19.7981 23.3265 19.6827C23.3556 19.5674 23.4098 19.4599 23.4853 19.3679C23.5608 19.2759 23.6557 19.2018 23.7632 19.1508C23.8708 19.0999 23.9882 19.0733 24.1072 19.073H33.3149C33.4339 19.0733 33.5514 19.0999 33.6589 19.1508C33.7664 19.2018 33.8613 19.2759 33.9368 19.3679C34.0123 19.4599 34.0666 19.5674 34.0956 19.6827C34.1247 19.7981 34.128 19.9185 34.1051 20.0353L32.8268 26.5256C32.7885 26.7073 32.6887 26.8702 32.5442 26.9869C32.3998 27.1036 32.2195 27.1669 32.0338 27.1661ZM26.0515 25.552H31.3707L32.3329 20.6899H25.0892L26.0515 25.552Z" fill="white"/>
<path d="M53.8582 27.1661H47.2127C47.0264 27.1658 46.8458 27.101 46.7018 26.9827C46.5578 26.8644 46.4591 26.6999 46.4226 26.5171L45.15 20.0353C45.1271 19.9185 45.1303 19.7981 45.1594 19.6827C45.1885 19.5674 45.2427 19.4599 45.3182 19.3679C45.3937 19.2759 45.4886 19.2018 45.5961 19.1508C45.7036 19.0999 45.8211 19.0733 45.9401 19.073H55.1394C55.2584 19.0733 55.3758 19.0999 55.4833 19.1508C55.5908 19.2018 55.6857 19.2759 55.7612 19.3679C55.8367 19.4599 55.891 19.5674 55.9201 19.6827C55.9492 19.7981 55.9524 19.9185 55.9295 20.0353L54.6512 26.5256C54.6129 26.7073 54.5131 26.8702 54.3686 26.9869C54.2242 27.1036 54.0439 27.1669 53.8582 27.1661ZM47.8759 25.552H53.1951L54.1574 20.6899H46.9136L47.8759 25.552Z" fill="white"/>
<path d="M28.3344 45.83H21.6889C21.5025 45.8296 21.3219 45.7648 21.1779 45.6465C21.0339 45.5282 20.9352 45.3637 20.8987 45.1809L19.6176 38.7076C19.5947 38.5908 19.5979 38.4704 19.627 38.355C19.6561 38.2397 19.7104 38.1322 19.7859 38.0402C19.8614 37.9482 19.9563 37.8741 20.0638 37.8231C20.1713 37.7722 20.2887 37.7456 20.4077 37.7453H29.6296C29.7486 37.7456 29.866 37.7722 29.9735 37.8231C30.081 37.8741 30.176 37.9482 30.2515 38.0402C30.327 38.1322 30.3812 38.2397 30.4103 38.355C30.4394 38.4704 30.4426 38.5908 30.4197 38.7076L29.1386 45.1809C29.1016 45.3661 29.0009 45.5325 28.854 45.6511C28.707 45.7696 28.5232 45.8329 28.3344 45.83ZM22.352 44.2158H27.6712L28.6335 39.3538H21.3897L22.352 44.2158Z" fill="white"/>
<path d="M58.1305 45.83H51.4794C51.293 45.8297 51.1124 45.7648 50.9684 45.6465C50.8244 45.5282 50.7258 45.3637 50.6893 45.1809L49.4081 38.7076C49.3852 38.5908 49.3885 38.4704 49.4176 38.355C49.4466 38.2397 49.5009 38.1322 49.5764 38.0402C49.6519 37.9482 49.7468 37.8741 49.8543 37.8231C49.9618 37.7722 50.0793 37.7456 50.1983 37.7453H59.406C59.525 37.7456 59.6425 37.7722 59.75 37.8231C59.8575 37.8741 59.9524 37.9482 60.0279 38.0402C60.1034 38.1322 60.1576 38.2397 60.1867 38.355C60.2158 38.4704 60.219 38.5908 60.1961 38.7076L58.915 45.1809C58.8787 45.3628 58.7809 45.5266 58.638 45.6448C58.4952 45.763 58.3159 45.8284 58.1305 45.83ZM52.1482 44.2158H57.4674L58.4296 39.3538H51.1803L52.1482 44.2158Z" fill="white"/>
<path d="M41.7523 22.9757C42.4755 22.9757 43.0617 22.3895 43.0617 21.6663C43.0617 20.9432 42.4755 20.357 41.7523 20.357C41.0292 20.357 40.443 20.9432 40.443 21.6663C40.443 22.3895 41.0292 22.9757 41.7523 22.9757Z" fill="#FE6A84"/>
<path d="M30.0219 34.7711C30.745 34.7711 31.3312 34.1849 31.3312 33.4618C31.3312 32.7386 30.745 32.1524 30.0219 32.1524C29.2987 32.1524 28.7125 32.7386 28.7125 33.4618C28.7125 34.1849 29.2987 34.7711 30.0219 34.7711Z" fill="white"/>
<path d="M26.5002 53.0709C27.0161 53.0709 27.4342 52.6527 27.4342 52.1369C27.4342 51.621 27.0161 51.2028 26.5002 51.2028C25.9843 51.2028 25.5662 51.621 25.5662 52.1369C25.5662 52.6527 25.9843 53.0709 26.5002 53.0709Z" fill="#FE6A84"/>
<path d="M55.1394 51.6346C55.6552 51.6346 56.0734 51.2164 56.0734 50.7005C56.0734 50.1847 55.6552 49.7665 55.1394 49.7665C54.6235 49.7665 54.2053 50.1847 54.2053 50.7005C54.2053 51.2164 54.6235 51.6346 55.1394 51.6346Z" fill="white"/>
<path d="M59.9422 32.8578C60.3318 32.8578 60.6476 32.542 60.6476 32.1524C60.6476 31.7627 60.3318 31.4469 59.9422 31.4469C59.5525 31.4469 59.2367 31.7627 59.2367 32.1524C59.2367 32.542 59.5525 32.8578 59.9422 32.8578Z" fill="#FE6A84"/>
<defs>
<radialGradient id="paint0_radial_1_1297" cx="0" cy="0" r="1" gradientUnits="userSpaceOnUse" gradientTransform="translate(40 40) scale(39.5824)">
<stop stop-color="#FE6A84"/>
<stop offset="0.993" stop-color="#FE6A84" stop-opacity="0"/>
</radialGradient>
</defs>
</svg>
