<svg width="80" height="80" viewBox="0 0 80 80" fill="none" xmlns="http://www.w3.org/2000/svg">
<g clip-path="url(#clip0_1_1339)">
<path d="M40 80C62.0914 80 80 62.0914 80 40C80 17.9086 62.0914 0 40 0C17.9086 0 0 17.9086 0 40C0 62.0914 17.9086 80 40 80Z" fill="url(#paint0_radial_1_1339)"/>
<path d="M40.3527 52.8084C38.5621 52.7369 36.805 52.2994 35.1899 51.5229C33.5747 50.7464 32.1357 49.6473 30.9616 48.2934C30.8274 48.1557 30.7413 47.9783 30.7159 47.7877C30.6904 47.5971 30.7271 47.4034 30.8205 47.2352C31.5494 45.9147 32.5773 44.7831 33.8219 43.931C35.0665 43.0789 36.4932 42.5299 37.988 42.328C40.4927 41.9882 43.0422 42.3854 45.3249 43.4709C44.3058 41.4164 43.8538 39.1271 44.0155 36.8395C44.1227 35.2277 44.5876 33.66 45.3763 32.2503C46.1651 30.8407 47.2581 29.6244 48.5757 28.6899C48.7367 28.577 48.9305 28.5205 49.127 28.5291C49.3235 28.5378 49.5117 28.6112 49.6621 28.7379C51.046 29.7609 52.2028 31.0596 53.0595 32.5522C53.9163 34.0447 54.4544 35.6986 54.6399 37.4095C54.613 39.3924 54.1943 41.3504 53.4078 43.1708C52.6213 44.9913 51.4826 46.6382 50.0572 48.0169C48.8752 49.4198 47.4195 50.5668 45.779 51.3878C44.1385 52.2088 42.3478 52.6864 40.5164 52.7915L40.3527 52.8084ZM32.7337 47.5344C33.733 48.5989 34.9333 49.4549 36.2652 50.0531C37.5971 50.6512 39.0343 50.9797 40.4938 51.0194C43.4047 50.8533 46.141 49.5766 48.1383 47.4525C46.8356 46.2084 45.2765 45.2641 43.5704 44.686C41.8643 44.1079 40.0524 43.9098 38.2617 44.1058C37.1503 44.2541 36.083 44.6364 35.1301 45.2274C34.1772 45.8183 33.3605 46.6046 32.7337 47.5344ZM49.0497 30.6031C48.0983 31.3907 47.319 32.3655 46.7603 33.467C46.2015 34.5684 45.8753 35.7731 45.8018 37.006C45.7117 38.6946 45.9828 40.3831 46.5969 41.9587C47.211 43.5343 48.154 44.9608 49.363 46.1432C51.5746 43.8176 52.822 40.7399 52.8536 37.5308C52.5497 34.8041 51.1792 32.3085 49.0413 30.589L49.0497 30.6031Z" fill="white"/>
<path d="M50.5904 63.0067C48.7998 62.935 47.0428 62.4974 45.4277 61.7209C43.8125 60.9444 42.3735 59.8454 41.1992 58.4917C41.0651 58.3539 40.9789 58.1766 40.9535 57.9859C40.9281 57.7953 40.9648 57.6016 41.0581 57.4335C41.7892 56.114 42.819 54.984 44.0651 54.1338C45.3112 53.2837 46.7389 52.737 48.2342 52.5375C50.7389 52.1976 53.2884 52.5948 55.571 53.6804C54.5519 51.6259 54.0999 49.3366 54.2617 47.049C54.3688 45.4372 54.8337 43.8695 55.6225 42.4599C56.4113 41.0502 57.5042 39.8339 58.8218 38.8995C58.9828 38.7865 59.1767 38.73 59.3732 38.7387C59.5697 38.7473 59.7578 38.8207 59.9082 38.9474C61.2916 39.9702 62.4482 41.2686 63.3049 42.7606C64.1616 44.2525 64.7 45.9058 64.886 47.6162C64.859 49.5988 64.4406 51.5566 63.6546 53.3769C62.8686 55.1973 61.7307 56.8444 60.3061 58.2236C59.1241 59.6264 57.6683 60.7733 56.0279 61.5943C54.3874 62.4152 52.5968 62.893 50.7654 62.9982L50.5904 63.0067ZM42.9714 57.7326C45.0012 59.8666 47.788 61.1181 50.7315 61.2176C53.6423 61.0512 56.3785 59.7746 58.376 57.6508C57.0738 56.4058 55.5148 55.461 53.8086 54.8829C52.1023 54.3047 50.2902 54.1071 48.4994 54.304C47.388 54.4524 46.3207 54.8346 45.3678 55.4256C44.4149 56.0166 43.5981 56.8029 42.9714 57.7326ZM59.2874 40.8014C58.336 41.5889 57.5567 42.5637 56.9979 43.6652C56.4392 44.7667 56.1129 45.9713 56.0394 47.2042C55.9494 48.8929 56.2204 50.5813 56.8345 52.1569C57.4486 53.7325 58.3916 55.1591 59.6006 56.3414C61.8101 54.0229 63.0602 50.9541 63.0998 47.7517C62.8015 45.0177 61.4303 42.5139 59.2874 40.7901V40.8014Z" fill="white"/>
<path d="M63.4497 60.1058L34.884 31.9436C35.2165 28.7548 34.2797 25.5635 32.2765 23.0603C31.096 21.9104 29.6701 21.0431 28.106 20.5235C26.542 20.004 24.8806 19.8457 23.2466 20.0607C23.0461 20.0683 22.8539 20.1427 22.7005 20.272C22.5471 20.4014 22.4414 20.5783 22.4 20.7746C21.9462 22.285 21.8584 23.8818 22.144 25.4329C22.4296 26.984 23.0803 28.4448 24.0423 29.6945C25.2795 30.8651 26.7387 31.7758 28.3338 32.3729C29.9288 32.97 31.6274 33.2414 33.3291 33.1711H33.5915L62.194 61.3898C62.3639 61.5541 62.5898 61.6478 62.8261 61.6522C63.0022 61.6483 63.1734 61.5928 63.3183 61.4926C63.4632 61.3924 63.5755 61.2518 63.6413 61.0884C63.707 60.925 63.7234 60.7458 63.6884 60.5732C63.6533 60.4005 63.5684 60.2419 63.4441 60.1171L63.4497 60.1058ZM24.0226 21.8159C25.2855 21.699 26.5587 21.8566 27.7549 22.278C28.9512 22.6993 30.0422 23.3743 30.9531 24.2568C32.5418 26.2747 33.3152 28.8155 33.1203 31.3764C30.2672 31.4747 27.491 30.4411 25.3968 28.5009C24.6801 27.5615 24.1844 26.4726 23.9465 25.3153C23.7086 24.1579 23.7346 22.9618 24.0226 21.8159Z" fill="#FE6A84"/>
<path d="M43.7671 26.7824C43.6072 25.1799 43.1286 23.6255 42.3596 22.2105C41.5905 20.7955 40.5465 19.5484 39.2888 18.5425L39.2663 18.52C37.7791 17.0328 34.7287 14.5185 34.5989 14.4113C34.5103 14.328 34.4056 14.2638 34.2912 14.2226C34.1768 14.1814 34.0551 14.1641 33.9338 14.1718C33.8124 14.1794 33.694 14.2119 33.5857 14.2673C33.4774 14.3226 33.3816 14.3995 33.3042 14.4933C33.2269 14.5871 33.1696 14.6958 33.1359 14.8126C33.1022 14.9295 33.0928 15.052 33.1084 15.1726C33.1239 15.2932 33.1641 15.4093 33.2263 15.5138C33.2885 15.6182 33.3715 15.7088 33.4701 15.7799C33.4927 15.8025 35.3636 17.3517 36.8564 18.7203C34.6744 20.6259 33.3378 23.3194 33.14 26.2095C32.9811 28.4933 33.433 30.7783 34.4493 32.8296C32.1648 31.7501 29.6171 31.3532 27.1125 31.6868C25.8126 31.864 24.5623 32.3039 23.4378 32.9797C22.3133 33.6555 21.338 34.553 20.5714 35.6177C18.9149 33.9245 16.7139 31.1873 16.6885 31.1535C16.5375 30.9704 16.3205 30.8542 16.0844 30.8299C15.8484 30.8056 15.6122 30.8752 15.4271 31.0237C15.2442 31.1722 15.1277 31.3874 15.1034 31.6218C15.079 31.8562 15.1488 32.0907 15.2973 32.2737C16.8065 34.1683 18.4203 35.9771 20.1312 37.6917L20.1791 37.7284C21.3495 39.06 22.7787 40.1395 24.3796 40.9012C25.9806 41.6629 27.7197 42.0907 29.4913 42.1587H29.6578C31.3993 42.1175 33.1088 41.6824 34.6582 40.8861C36.3741 40.004 37.9154 38.8174 39.207 37.3841C40.6287 36.005 41.7635 34.3583 42.5461 32.5388C43.3287 30.7193 43.7437 28.7629 43.7671 26.7824ZM29.6296 40.3669C28.1684 40.3328 26.7288 40.0066 25.3955 39.4076C24.0623 38.8086 22.8625 37.9489 21.8666 36.879C22.4952 35.9502 23.3137 35.1652 24.2681 34.5762C25.2225 33.9871 26.291 33.6072 27.4031 33.4617C29.194 33.2629 31.0067 33.4595 32.7132 34.0378C34.4198 34.6161 35.9786 35.5619 37.2797 36.8085C35.2816 38.9336 32.5421 40.2079 29.6296 40.3669ZM38.5015 35.4737C37.2907 34.2934 36.3464 32.8675 35.7322 31.292C35.1179 29.7165 34.8479 28.0278 34.9403 26.3393C35.0125 25.1055 35.3384 23.8997 35.8977 22.7975C36.4571 21.6953 37.2378 20.7204 38.1911 19.9337C40.3282 21.6584 41.6974 24.1574 42.0007 26.8868C41.9592 30.0896 40.7059 33.1578 38.4931 35.4737H38.5015Z" fill="white"/>
<path d="M60.5912 26.5256C59.7387 26.5255 58.9053 26.2728 58.1963 25.7993C57.4874 25.3257 56.9347 24.6526 56.6082 23.8651C56.2817 23.0775 56.1959 22.2109 56.3619 21.3746C56.5278 20.5384 56.9379 19.7701 57.5403 19.1668C58.1428 18.5636 58.9105 18.1525 59.7466 17.9855C60.5826 17.8184 61.4494 17.903 62.2374 18.2285C63.0254 18.554 63.6992 19.1058 64.1736 19.8141C64.6481 20.5224 64.9019 21.3555 64.9031 22.2081C64.9031 23.3522 64.4489 24.4495 63.6405 25.259C62.832 26.0685 61.7353 26.5241 60.5912 26.5256ZM60.5912 19.6853C60.0889 19.6853 59.5979 19.8343 59.1803 20.1134C58.7626 20.3924 58.4371 20.7891 58.2449 21.2531C58.0527 21.7172 58.0024 22.2278 58.1003 22.7205C58.1983 23.2131 58.4402 23.6657 58.7954 24.0208C59.1506 24.376 59.6031 24.6179 60.0958 24.7159C60.5884 24.8139 61.0991 24.7636 61.5631 24.5714C62.0272 24.3792 62.4238 24.0536 62.7029 23.636C62.982 23.2183 63.1309 22.7273 63.1309 22.225C63.1317 21.891 63.0665 21.5602 62.9392 21.2514C62.8119 20.9426 62.625 20.662 62.3891 20.4255C62.1532 20.1891 61.8729 20.0015 61.5644 19.8736C61.2559 19.7456 60.9252 19.6797 60.5912 19.6797V19.6853Z" fill="#FE6A84"/>
<path d="M20.5545 56.7704C19.829 56.7704 19.1197 56.5552 18.5165 56.1522C17.9132 55.7491 17.443 55.1761 17.1654 54.5058C16.8877 53.8355 16.8151 53.0979 16.9566 52.3863C17.0981 51.6747 17.4475 51.021 17.9606 50.508C18.4736 49.995 19.1273 49.6456 19.8389 49.504C20.5505 49.3625 21.2881 49.4351 21.9584 49.7128C22.6287 49.9904 23.2016 50.4606 23.6047 51.0639C24.0078 51.6672 24.223 52.3764 24.223 53.102C24.223 54.0749 23.8365 55.008 23.1485 55.6959C22.4605 56.3839 21.5275 56.7704 20.5545 56.7704ZM20.5545 51.2141C20.1817 51.2141 19.8173 51.3247 19.5073 51.5318C19.1973 51.7389 18.9557 52.0333 18.813 52.3778C18.6703 52.7222 18.633 53.1012 18.7058 53.4669C18.7785 53.8325 18.958 54.1684 19.2216 54.432C19.4853 54.6957 19.8211 54.8752 20.1868 54.9479C20.5524 55.0207 20.9315 54.9833 21.2759 54.8407C21.6203 54.698 21.9147 54.4564 22.1219 54.1464C22.329 53.8364 22.4395 53.472 22.4395 53.0991C22.4395 52.5989 22.241 52.1192 21.8876 51.7652C21.5342 51.4113 21.0547 51.2121 20.5545 51.2113V51.2141Z" fill="#FE6A84"/>
<path d="M36.1849 65.8004C35.5664 65.8009 34.9616 65.618 34.447 65.2748C33.9325 64.9316 33.5313 64.4435 33.2942 63.8722C33.0572 63.3009 32.9948 62.6722 33.1152 62.0655C33.2355 61.4588 33.533 60.9014 33.9702 60.4639C34.4073 60.0263 34.9645 59.7283 35.571 59.6074C36.1776 59.4865 36.8064 59.5483 37.3779 59.7849C37.9494 60.0214 38.4379 60.4222 38.7816 60.9364C39.1252 61.4506 39.3087 62.0552 39.3087 62.6737C39.3079 63.5023 38.9787 64.2967 38.3931 64.8828C37.8075 65.4689 37.0134 65.7989 36.1849 65.8004ZM36.1849 61.3334C35.9198 61.3334 35.6606 61.412 35.4402 61.5593C35.2198 61.7065 35.048 61.9159 34.9465 62.1608C34.8451 62.4057 34.8185 62.6752 34.8702 62.9352C34.922 63.1953 35.0496 63.4341 35.2371 63.6215C35.4245 63.809 35.6634 63.9367 35.9234 63.9884C36.1834 64.0401 36.4529 64.0136 36.6978 63.9121C36.9427 63.8107 37.1521 63.6389 37.2994 63.4184C37.4466 63.198 37.5253 62.9389 37.5253 62.6737C37.5245 62.3185 37.3831 61.978 37.1318 61.7268C36.8806 61.4756 36.5401 61.3341 36.1849 61.3334Z" fill="#FE6A84"/>
<path d="M23.3962 45.3813C23.8138 45.3813 24.1524 45.0427 24.1524 44.625C24.1524 44.2074 23.8138 43.8688 23.3962 43.8688C22.9785 43.8688 22.6399 44.2074 22.6399 44.625C22.6399 45.0427 22.9785 45.3813 23.3962 45.3813Z" fill="white"/>
<path d="M58.0571 34.6272C58.5464 34.6272 58.9432 34.2305 58.9432 33.7411C58.9432 33.2517 58.5464 32.855 58.0571 32.855C57.5677 32.855 57.171 33.2517 57.171 33.7411C57.171 34.2305 57.5677 34.6272 58.0571 34.6272Z" fill="white"/>
<path d="M51.4539 22.5806C52.1568 22.5806 52.7266 22.0108 52.7266 21.3079C52.7266 20.6051 52.1568 20.0353 51.4539 20.0353C50.7511 20.0353 50.1813 20.6051 50.1813 21.3079C50.1813 22.0108 50.7511 22.5806 51.4539 22.5806Z" fill="white"/>
</g>
<defs>
<radialGradient id="paint0_radial_1_1339" cx="0" cy="0" r="1" gradientUnits="userSpaceOnUse" gradientTransform="translate(40 40) scale(39.5824)">
<stop stop-color="#FE6A84"/>
<stop offset="0.993" stop-color="#FE6A84" stop-opacity="0"/>
</radialGradient>
<clipPath id="clip0_1_1339">
<rect width="80" height="80" fill="white"/>
</clipPath>
</defs>
</svg>
