<svg width="80" height="80" viewBox="0 0 80 80" fill="none" xmlns="http://www.w3.org/2000/svg">
<g clip-path="url(#clip0_1_1282)">
<path d="M40 80C62.0914 80 80 62.0914 80 40C80 17.9086 62.0914 0 40 0C17.9086 0 0 17.9086 0 40C0 62.0914 17.9086 80 40 80Z" fill="url(#paint0_radial_1_1282)"/>
<path d="M39.0659 63.5909C35.0034 63.5909 31.0321 62.3862 27.6543 60.1292C24.2764 57.8722 21.6437 54.6642 20.0891 50.9109C18.5344 47.1577 18.1276 43.0277 18.9202 39.0432C19.7128 35.0588 21.669 31.3988 24.5417 28.5262C27.4143 25.6536 31.0742 23.6973 35.0587 22.9048C39.0431 22.1122 43.1731 22.519 46.9264 24.0736C50.6796 25.6283 53.8876 28.261 56.1446 31.6388C58.4016 35.0167 59.6063 38.988 59.6063 43.0505C59.6003 48.4963 57.4343 53.7173 53.5836 57.5681C49.7328 61.4189 44.5117 63.5849 39.0659 63.5909ZM39.0659 24.6095C35.4186 24.6095 31.8533 25.6911 28.8207 27.7174C25.7881 29.7437 23.4245 32.6238 22.0287 35.9934C20.633 39.3631 20.2678 43.0709 20.9793 46.6481C21.6909 50.2253 23.4472 53.5112 26.0262 56.0902C28.6052 58.6692 31.8911 60.4255 35.4683 61.137C39.0455 61.8486 42.7533 61.4834 46.1229 60.0877C49.4926 58.6919 52.3727 56.3283 54.399 53.2957C56.4253 50.2631 57.5068 46.6977 57.5068 43.0505C57.5009 38.1615 55.5561 33.4744 52.099 30.0174C48.642 26.5603 43.9549 24.6155 39.0659 24.6095Z" fill="white"/>
<path d="M39.0687 28.3654C36.1666 28.3654 33.3295 29.226 30.9165 30.8384C28.5034 32.4508 26.6226 34.7425 25.512 37.4237C24.4014 40.105 24.1108 43.0554 24.677 45.9018C25.2432 48.7483 26.6407 51.3629 28.6929 53.415C30.745 55.4672 33.3596 56.8647 36.206 57.4309C39.0525 57.9971 42.0029 57.7065 44.6841 56.5959C47.3654 55.4853 49.6571 53.6045 51.2695 51.1914C52.8819 48.7783 53.7425 45.9413 53.7425 43.0391C53.7358 39.1495 52.1876 35.4211 49.4372 32.6707C46.6868 29.9203 42.9584 28.3721 39.0687 28.3654ZM40.1185 55.5795V54.067C40.1259 53.9248 40.1042 53.7825 40.0549 53.6489C40.0055 53.5153 39.9295 53.3931 39.8314 53.2898C39.7334 53.1865 39.6153 53.1043 39.4844 53.0481C39.3535 52.9918 39.2126 52.9629 39.0702 52.9629C38.9277 52.9629 38.7868 52.9918 38.6559 53.0481C38.525 53.1043 38.407 53.1865 38.3089 53.2898C38.2108 53.3931 38.1348 53.5153 38.0854 53.6489C38.0361 53.7825 38.0145 53.9248 38.0218 54.067V55.5908C35.0583 55.3463 32.2777 54.058 30.1751 51.9554C28.0724 49.8527 26.7842 47.0721 26.5396 44.1086H28.0493C28.1916 44.116 28.3338 44.0944 28.4675 44.045C28.6011 43.9957 28.7232 43.9196 28.8265 43.8216C28.9298 43.7235 29.0121 43.6054 29.0683 43.4746C29.1245 43.3437 29.1535 43.2027 29.1535 43.0603C29.1535 42.9179 29.1245 42.7769 29.0683 42.646C29.0121 42.5152 28.9298 42.3971 28.8265 42.299C28.7232 42.201 28.6011 42.1249 28.4675 42.0756C28.3338 42.0262 28.1916 42.0046 28.0493 42.012H26.5396C26.7864 39.0493 28.0753 36.2699 30.1775 34.1677C32.2798 32.0655 35.0591 30.7765 38.0218 30.5298V32.0536C38.0358 32.3222 38.1523 32.5753 38.3474 32.7605C38.5424 32.9457 38.8012 33.0489 39.0702 33.0489C39.3391 33.0489 39.5979 32.9457 39.7929 32.7605C39.988 32.5753 40.1045 32.3222 40.1185 32.0536V30.5298C43.0812 30.7765 45.8606 32.0655 47.9628 34.1677C50.065 36.2699 51.3539 39.0493 51.6007 42.012H50.0769C49.8082 42.0259 49.5552 42.1424 49.37 42.3375C49.1848 42.5326 49.0815 42.7913 49.0815 43.0603C49.0815 43.3293 49.1848 43.588 49.37 43.7831C49.5552 43.9782 49.8082 44.0947 50.0769 44.1086H51.6007C51.3561 47.0721 50.0679 49.8527 47.9652 51.9554C45.8626 54.058 43.082 55.3463 40.1185 55.5908V55.5795Z" fill="#FE6A84"/>
<path d="M39.0659 46.9418C38.2968 46.9418 37.545 46.7138 36.9056 46.2865C36.2661 45.8592 35.7677 45.2519 35.4734 44.5414C35.1791 43.8308 35.102 43.049 35.2521 42.2947C35.4021 41.5404 35.7725 40.8475 36.3163 40.3037C36.8601 39.7598 37.553 39.3895 38.3073 39.2395C39.0616 39.0894 39.8434 39.1664 40.554 39.4607C41.2645 39.755 41.8718 40.2535 42.2991 40.8929C42.7264 41.5324 42.9544 42.2842 42.9544 43.0533C42.953 44.0841 42.5428 45.0723 41.8139 45.8012C41.085 46.5302 40.0968 46.9403 39.0659 46.9418ZM39.0659 41.2614C38.7115 41.2614 38.3651 41.3665 38.0704 41.5634C37.7757 41.7603 37.546 42.0401 37.4104 42.3675C37.2748 42.695 37.2393 43.0553 37.3084 43.4029C37.3776 43.7504 37.5483 44.0697 37.7989 44.3203C38.0495 44.5709 38.3687 44.7416 38.7163 44.8107C39.0639 44.8799 39.4242 44.8444 39.7516 44.7088C40.0791 44.5731 40.3589 44.3435 40.5558 44.0488C40.7527 43.7541 40.8578 43.4077 40.8578 43.0533C40.8578 42.5778 40.6691 42.1217 40.3331 41.7852C39.9972 41.4487 39.5414 41.2593 39.0659 41.2586V41.2614Z" fill="white"/>
<path d="M30.7584 36.0607C30.6123 36.0614 30.4677 36.0313 30.334 35.9725C30.2003 35.9137 30.0805 35.8274 29.9823 35.7192L27.279 32.7337C27.1761 32.6339 27.0947 32.5141 27.0398 32.3817C26.985 32.2492 26.9579 32.107 26.9601 31.9637C26.9623 31.8203 26.9939 31.679 27.0528 31.5483C27.1118 31.4177 27.1969 31.3005 27.3029 31.2039C27.4088 31.1074 27.5335 31.0336 27.6691 30.9871C27.8046 30.9406 27.9483 30.9223 28.0912 30.9335C28.2341 30.9446 28.3733 30.9849 28.5 31.0518C28.6268 31.1188 28.7384 31.211 28.8282 31.3228L31.5372 34.2942C31.675 34.4442 31.7661 34.6312 31.7992 34.8322C31.8324 35.0332 31.8061 35.2395 31.7238 35.4258C31.6414 35.6122 31.5064 35.7704 31.3355 35.8812C31.1645 35.9919 30.9649 36.0504 30.7612 36.0494L30.7584 36.0607Z" fill="white"/>
<path d="M49.8202 54.6399C49.6741 54.6404 49.5296 54.6103 49.3959 54.5515C49.2623 54.4927 49.1424 54.4065 49.0441 54.2984L46.3352 51.327C46.2354 51.2264 46.1571 51.1066 46.1048 50.9749C46.0526 50.8432 46.0276 50.7023 46.0312 50.5607C46.0349 50.4191 46.0672 50.2797 46.1262 50.1509C46.1852 50.022 46.2697 49.9065 46.3745 49.8112C46.4793 49.7159 46.6024 49.6428 46.7362 49.5963C46.87 49.5498 47.0119 49.5309 47.1532 49.5407C47.2946 49.5505 47.4325 49.5888 47.5586 49.6533C47.6847 49.7179 47.7965 49.8072 47.8872 49.9161L50.5962 52.8875C50.7327 53.038 50.8227 53.2248 50.8551 53.4254C50.8875 53.626 50.8611 53.8316 50.7789 54.0175C50.6968 54.2033 50.5624 54.3613 50.3923 54.4723C50.2221 54.5832 50.0233 54.6425 49.8202 54.6427V54.6399Z" fill="white"/>
<path d="M27.9365 54.5072C27.7248 54.5069 27.5182 54.4427 27.3437 54.3229C27.1692 54.203 27.035 54.0333 26.9587 53.8358C26.8825 53.6384 26.8676 53.4225 26.9162 53.2165C26.9648 53.0105 27.0745 52.824 27.231 52.6815L30.2024 49.9725C30.4103 49.7993 30.677 49.7131 30.9469 49.7318C31.2168 49.7505 31.469 49.8727 31.651 50.0729C31.833 50.2731 31.9307 50.5358 31.9237 50.8063C31.9166 51.0767 31.8055 51.334 31.6134 51.5245L28.6419 54.2335C28.4491 54.4095 28.1975 54.5071 27.9365 54.5072Z" fill="white"/>
<path d="M47.1111 36.0607C46.8995 36.0604 46.6929 35.9961 46.5184 35.8763C46.3439 35.7565 46.2097 35.5867 46.1334 35.3893C46.0571 35.1919 46.0423 34.976 46.0909 34.77C46.1395 34.564 46.2492 34.3775 46.4057 34.2349L49.3771 31.5259C49.585 31.3528 49.8517 31.2666 50.1216 31.2853C50.3915 31.304 50.6437 31.4262 50.8257 31.6264C51.0077 31.8266 51.1054 32.0893 51.0984 32.3597C51.0913 32.6302 50.9802 32.8875 50.788 33.078L47.8166 35.787C47.624 35.9632 47.3723 36.0609 47.1111 36.0607Z" fill="white"/>
<path d="M44.6222 18.1418V15.763C44.6222 14.9397 44.2952 14.1502 43.7131 13.5681C43.1309 12.986 42.3414 12.6589 41.5182 12.6589H36.6928C35.8744 12.6664 35.0921 12.9967 34.5161 13.578C33.9401 14.1593 33.6169 14.9446 33.6169 15.763V18.1136C29.6172 18.9886 25.8866 20.8129 22.7401 23.4327C19.5936 26.0524 17.1235 29.3907 15.5383 33.1657C13.9531 36.9407 13.2993 41.0417 13.6321 45.1225C13.9649 49.2033 15.2745 53.1441 17.4504 56.6124C18.2634 58.1165 18.8925 59.7129 19.3242 61.3672C20.3457 64.6124 21.3926 67.9535 24.1496 69.4096C26.0515 70.417 33.0159 70.9334 39.8674 70.9334C44.8753 71.1975 49.8947 70.7163 54.7612 69.5055C57.5436 68.0381 58.3139 64.7365 59.0674 61.5337C59.3738 59.7752 59.9447 58.0731 60.7605 56.4854C62.9022 53.0229 64.1848 49.0984 64.5012 45.0394C64.8176 40.9803 64.1586 36.9045 62.5792 33.152C60.9998 29.3994 58.5458 26.0791 55.4221 23.4679C52.2983 20.8568 48.5954 19.0306 44.6222 18.1418ZM35.7277 15.7658C35.7277 15.5048 35.8304 15.2543 36.0136 15.0684C36.1968 14.8825 36.4459 14.7762 36.7069 14.7725H41.5323C41.7955 14.7733 42.0477 14.8781 42.2338 15.0643C42.4199 15.2504 42.5248 15.5026 42.5256 15.7658V17.7778C41.3809 17.6209 40.227 17.5417 39.0716 17.5408C37.9541 17.5371 36.8376 17.6116 35.7305 17.7637L35.7277 15.7658ZM58.9771 55.382C58.0364 57.1627 57.3758 59.0777 57.0187 61.0596C56.3471 63.9267 55.7037 66.6244 53.7735 67.6459C50.7118 69.2544 28.2102 69.1838 25.1316 67.5612C23.1309 66.4974 22.2081 63.5768 21.3277 60.7379C20.8365 58.9166 20.1279 57.161 19.2169 55.509C16.9967 51.9699 15.7636 47.9014 15.6453 43.7252C15.5271 39.5491 16.528 35.4173 18.5444 31.7582C20.5608 28.0992 23.5192 25.0461 27.1129 22.9155C30.7066 20.7848 34.8048 19.6542 38.9826 19.6409C43.1605 19.6276 47.2658 20.7319 50.8731 22.8396C54.4803 24.9472 57.4582 27.9813 59.4979 31.6274C61.5376 35.2735 62.5649 39.3988 62.4733 43.5757C62.3818 47.7525 61.1746 51.8288 58.9771 55.382Z" fill="white"/>
<path d="M18.0797 26.9517C17.8803 26.9541 17.6845 26.8993 17.5153 26.7936C16.5564 26.2344 15.8123 25.3701 15.4018 24.3386C14.9531 22.5383 17.854 19.8631 19.9168 19.1351C21.4838 18.6566 23.1478 18.5905 24.7478 18.9432C25.0088 19.0168 25.2312 19.1885 25.3684 19.4223C25.5057 19.6562 25.5471 19.9341 25.484 20.1979C25.4209 20.4616 25.2581 20.6907 25.0299 20.8371C24.8017 20.9835 24.5256 21.036 24.2596 20.9834C23.055 20.7273 21.806 20.7709 20.6222 21.1104C19.2568 21.6405 18.1319 22.651 17.4589 23.952C17.7817 24.3759 18.1807 24.7357 18.6356 25.013C18.8289 25.1345 18.9773 25.3155 19.0585 25.5289C19.1396 25.7422 19.1489 25.9762 19.0851 26.1954C19.0213 26.4145 18.8879 26.6069 18.7049 26.7434C18.5219 26.8798 18.2995 26.953 18.0713 26.9517H18.0797Z" fill="#FE6A84"/>
<path d="M60.0522 26.9517C59.824 26.953 59.6015 26.8799 59.4186 26.7434C59.2356 26.6069 59.1021 26.4145 59.0383 26.1954C58.9745 25.9762 58.9839 25.7423 59.065 25.5289C59.1461 25.3156 59.2946 25.1345 59.4878 25.0131C59.9825 24.7291 60.3941 24.3205 60.6815 23.8279C59.9464 22.6003 58.8308 21.6462 57.5041 21.1104C56.3211 20.7718 55.0732 20.7282 53.8695 20.9834C53.6035 21.036 53.3274 20.9835 53.0992 20.8371C52.871 20.6907 52.7083 20.4616 52.6452 20.1979C52.5821 19.9341 52.6234 19.6562 52.7607 19.4224C52.8979 19.1885 53.1203 19.0168 53.3813 18.9432C54.9787 18.5928 56.6394 18.6589 58.2039 19.1351C60.2639 19.8631 63.1676 22.5411 62.7189 24.3414C62.3073 25.3724 61.5622 26.2357 60.6025 26.7937C60.4373 26.8964 60.2468 26.9511 60.0522 26.9517Z" fill="#FE6A84"/>
<path d="M63.54 18.3873C62.618 18.3873 61.7167 18.1139 60.9501 17.6017C60.1835 17.0894 59.586 16.3614 59.2332 15.5095C58.8803 14.6577 58.788 13.7204 58.9679 12.8161C59.1477 11.9118 59.5917 11.0812 60.2437 10.4292C60.8956 9.77728 61.7263 9.33329 62.6306 9.15342C63.5349 8.97354 64.4722 9.06586 65.324 9.4187C66.1758 9.77153 66.9039 10.369 67.4161 11.1357C67.9283 11.9023 68.2018 12.8036 68.2018 13.7256C68.2003 14.9615 67.7086 16.1463 66.8347 17.0203C65.9608 17.8942 64.7759 18.3858 63.54 18.3873ZM63.54 11.1633C63.0333 11.1633 62.5379 11.3136 62.1165 11.5951C61.6952 11.8767 61.3667 12.2768 61.1728 12.745C60.9789 13.2132 60.9281 13.7284 61.027 14.2254C61.1259 14.7225 61.3699 15.179 61.7282 15.5374C62.0866 15.8957 62.5431 16.1397 63.0402 16.2386C63.5372 16.3375 64.0524 16.2867 64.5206 16.0928C64.9888 15.8989 65.3889 15.5704 65.6705 15.1491C65.952 14.7277 66.1023 14.2323 66.1023 13.7256C66.1015 13.0462 65.8313 12.395 65.351 11.9146C64.8706 11.4343 64.2194 11.1641 63.54 11.1633Z" fill="#FE6A84"/>
<path d="M68.4557 58.6272C67.7429 58.6272 67.0461 58.4157 66.4534 58.0197C65.8607 57.6236 65.3989 57.0606 65.1262 56.402C64.8535 55.7434 64.7823 55.0187 64.9216 54.3196C65.0609 53.6205 65.4044 52.9784 65.9086 52.4746C66.4129 51.9707 67.0552 51.6277 67.7544 51.489C68.4536 51.3503 69.1783 51.422 69.8367 51.6952C70.4951 51.9684 71.0577 52.4307 71.4533 53.0237C71.8489 53.6166 72.0598 54.3136 72.0592 55.0265C72.0577 55.9815 71.6775 56.8969 71.002 57.5719C70.3264 58.2469 69.4107 58.6264 68.4557 58.6272ZM68.4557 53.5168C68.1577 53.5168 67.8663 53.6051 67.6185 53.7707C67.3707 53.9363 67.1776 54.1716 67.0635 54.447C66.9495 54.7223 66.9196 55.0253 66.9778 55.3176C67.0359 55.6099 67.1794 55.8784 67.3902 56.0892C67.6009 56.2999 67.8694 56.4434 68.1617 56.5016C68.454 56.5597 68.757 56.5299 69.0324 56.4158C69.3077 56.3018 69.543 56.1086 69.7086 55.8608C69.8742 55.613 69.9626 55.3217 69.9626 55.0236C69.9618 54.6245 69.8027 54.2419 69.5202 53.9599C69.2377 53.6779 68.8549 53.5196 68.4557 53.5196V53.5168Z" fill="#FE6A84"/>
<path d="M11.7897 70.9249C11.0279 70.9249 10.2832 70.699 9.64975 70.2757C9.01631 69.8525 8.52261 69.2509 8.23107 68.5471C7.93954 67.8433 7.86326 67.0688 8.01188 66.3216C8.1605 65.5744 8.52736 64.8881 9.06605 64.3494C9.60474 63.8107 10.2911 63.4438 11.0383 63.2952C11.7854 63.1466 12.5599 63.2229 13.2638 63.5144C13.9676 63.8059 14.5692 64.2996 14.9924 64.9331C15.4157 65.5665 15.6416 66.3112 15.6416 67.073C15.6408 68.0944 15.2348 69.0737 14.5126 69.7959C13.7904 70.5181 12.8111 70.9242 11.7897 70.9249ZM11.7897 65.3207C11.4431 65.3207 11.1043 65.4234 10.8161 65.616C10.528 65.8085 10.3034 66.0822 10.1707 66.4024C10.0381 66.7226 10.0034 67.075 10.071 67.4149C10.1386 67.7549 10.3055 68.0671 10.5506 68.3122C10.7957 68.5572 11.1079 68.7241 11.4478 68.7918C11.7878 68.8594 12.1401 68.8247 12.4603 68.692C12.7805 68.5594 13.0542 68.3348 13.2468 68.0466C13.4393 67.7584 13.5421 67.4196 13.5421 67.073C13.5414 66.6085 13.3565 66.1632 13.028 65.8348C12.6995 65.5063 12.2543 65.3214 11.7897 65.3207Z" fill="#FE6A84"/>
</g>
<defs>
<radialGradient id="paint0_radial_1_1282" cx="0" cy="0" r="1" gradientUnits="userSpaceOnUse" gradientTransform="translate(40 40) scale(39.5824)">
<stop stop-color="#FE6A84"/>
<stop offset="0.993" stop-color="#FE6A84" stop-opacity="0"/>
</radialGradient>
<clipPath id="clip0_1_1282">
<rect width="80" height="80" fill="white"/>
</clipPath>
</defs>
</svg>
