<svg width="28" height="28" viewBox="0 0 28 28" fill="none" xmlns="http://www.w3.org/2000/svg">
<path fill-rule="evenodd" clip-rule="evenodd" d="M6.91868 6.22222V7.77778H4.55912C3.78426 7.77793 3.03759 8.03328 2.46644 8.49345C1.89528 8.95362 1.54112 9.58519 1.47382 10.2636L0.0117073 25.0413C-0.0255779 25.4171 0.0264263 25.7957 0.164421 26.1529C0.302415 26.5101 0.523387 26.8382 0.813318 27.1164C1.10325 27.3946 1.45581 27.6168 1.84863 27.7689C2.24146 27.921 2.66597 27.9997 3.09524 28H24.903C25.3324 27.9999 25.7571 27.9214 26.1501 27.7694C26.5432 27.6173 26.896 27.3952 27.1861 27.117C27.4762 26.8387 27.6973 26.5106 27.8354 26.1532C27.9735 25.7959 28.0256 25.4173 27.9883 25.0413L26.5262 10.2636C26.4589 9.58492 26.1044 8.95313 25.5329 8.49292C24.9614 8.03271 24.2143 7.77754 23.4391 7.77778H21.0796V6.22222C21.0796 4.57199 20.3336 2.98934 19.0057 1.82245C17.6779 0.655554 15.877 0 13.9991 0C12.1213 0 10.3203 0.655554 8.99249 1.82245C7.66465 2.98934 6.91868 4.57199 6.91868 6.22222ZM13.9991 2.33333C12.8255 2.33333 11.6999 2.74305 10.87 3.47236C10.0401 4.20167 9.57384 5.19082 9.57384 6.22222V7.77778H18.4244V6.22222C18.4244 5.19082 17.9582 4.20167 17.1283 3.47236C16.2984 2.74305 15.1728 2.33333 13.9991 2.33333ZM9.57384 14C9.57384 15.0314 10.0401 16.0206 10.87 16.7499C11.6999 17.4792 12.8255 17.8889 13.9991 17.8889C15.1728 17.8889 16.2984 17.4792 17.1283 16.7499C17.9582 16.0206 18.4244 15.0314 18.4244 14V12.0556C18.4244 11.7461 18.5643 11.4494 18.8132 11.2306C19.0622 11.0118 19.3999 10.8889 19.752 10.8889C20.1041 10.8889 20.4417 11.0118 20.6907 11.2306C20.9397 11.4494 21.0796 11.7461 21.0796 12.0556V14C21.0796 15.6502 20.3336 17.2329 19.0057 18.3998C17.6779 19.5667 15.877 20.2222 13.9991 20.2222C12.1213 20.2222 10.3203 19.5667 8.99249 18.3998C7.66465 17.2329 6.91868 15.6502 6.91868 14V12.0556C6.91868 11.7461 7.05855 11.4494 7.30752 11.2306C7.55649 11.0118 7.89416 10.8889 8.24626 10.8889C8.59835 10.8889 8.93603 11.0118 9.185 11.2306C9.43397 11.4494 9.57384 11.7461 9.57384 12.0556V14Z" fill="#D9D9D9"/>
<path fill-rule="evenodd" clip-rule="evenodd" d="M6.91868 6.22222V7.77778H4.55912C3.78426 7.77793 3.03759 8.03328 2.46644 8.49345C1.89528 8.95362 1.54112 9.58519 1.47382 10.2636L0.0117073 25.0413C-0.0255779 25.4171 0.0264263 25.7957 0.164421 26.1529C0.302415 26.5101 0.523387 26.8382 0.813318 27.1164C1.10325 27.3946 1.45581 27.6168 1.84863 27.7689C2.24146 27.921 2.66597 27.9997 3.09524 28H24.903C25.3324 27.9999 25.7571 27.9214 26.1501 27.7694C26.5432 27.6173 26.896 27.3952 27.1861 27.117C27.4762 26.8387 27.6973 26.5106 27.8354 26.1532C27.9735 25.7959 28.0256 25.4173 27.9883 25.0413L26.5262 10.2636C26.4589 9.58492 26.1044 8.95313 25.5329 8.49292C24.9614 8.03271 24.2143 7.77754 23.4391 7.77778H21.0796V6.22222C21.0796 4.57199 20.3336 2.98934 19.0057 1.82245C17.6779 0.655554 15.877 0 13.9991 0C12.1213 0 10.3203 0.655554 8.99249 1.82245C7.66465 2.98934 6.91868 4.57199 6.91868 6.22222ZM13.9991 2.33333C12.8255 2.33333 11.6999 2.74305 10.87 3.47236C10.0401 4.20167 9.57384 5.19082 9.57384 6.22222V7.77778H18.4244V6.22222C18.4244 5.19082 17.9582 4.20167 17.1283 3.47236C16.2984 2.74305 15.1728 2.33333 13.9991 2.33333ZM9.57384 14C9.57384 15.0314 10.0401 16.0206 10.87 16.7499C11.6999 17.4792 12.8255 17.8889 13.9991 17.8889C15.1728 17.8889 16.2984 17.4792 17.1283 16.7499C17.9582 16.0206 18.4244 15.0314 18.4244 14V12.0556C18.4244 11.7461 18.5643 11.4494 18.8132 11.2306C19.0622 11.0118 19.3999 10.8889 19.752 10.8889C20.1041 10.8889 20.4417 11.0118 20.6907 11.2306C20.9397 11.4494 21.0796 11.7461 21.0796 12.0556V14C21.0796 15.6502 20.3336 17.2329 19.0057 18.3998C17.6779 19.5667 15.877 20.2222 13.9991 20.2222C12.1213 20.2222 10.3203 19.5667 8.99249 18.3998C7.66465 17.2329 6.91868 15.6502 6.91868 14V12.0556C6.91868 11.7461 7.05855 11.4494 7.30752 11.2306C7.55649 11.0118 7.89416 10.8889 8.24626 10.8889C8.59835 10.8889 8.93603 11.0118 9.185 11.2306C9.43397 11.4494 9.57384 11.7461 9.57384 12.0556V14Z" fill="#FE6A84"/>
</svg>
