<svg width="16" height="16" viewBox="0 0 16 16" fill="none" xmlns="http://www.w3.org/2000/svg">
<path d="M14.208 11.1361C13.1709 10.3094 12.1184 9.80864 11.094 10.6341L10.4824 11.133C10.0348 11.4951 9.20274 13.1872 5.98562 9.73808C2.76917 6.29332 4.68323 5.75697 5.13143 5.39794L5.74645 4.89843C6.76545 4.07112 6.38089 3.02963 5.64595 1.95755L5.20244 1.30819C4.46415 0.238608 3.66021 -0.463831 2.63853 0.362237L2.08648 0.811798C1.63494 1.11837 0.372741 2.1149 0.0665717 4.00805C-0.301903 6.27958 0.860468 8.88079 3.52354 11.7349C6.18326 14.5902 8.78737 16.0244 11.2541 15.9995C13.3042 15.9789 14.5423 14.9536 14.9295 14.5809L15.4836 14.1307C16.5026 13.3052 15.8695 12.4648 14.8317 11.6362L14.208 11.1361Z" fill="#FE6A84"/>
</svg>
