<svg width="16" height="16" viewBox="0 0 16 16" fill="none" xmlns="http://www.w3.org/2000/svg">
<g clip-path="url(#clip0_97_9150)">
<path d="M11.6667 1.27802C10.916 1.28969 10.1817 1.49925 9.5379 1.88553C8.8941 2.27181 8.36363 2.82113 8.00005 3.47802C7.63648 2.82113 7.10601 2.27181 6.46221 1.88553C5.81841 1.49925 5.08409 1.28969 4.33339 1.27802C3.13668 1.33001 2.00919 1.85352 1.19724 2.73417C0.385293 3.61482 -0.0451135 4.78103 5.35741e-05 5.97802C5.35741e-05 9.00935 3.19072 12.32 5.86672 14.5647C6.4642 15.0668 7.21962 15.342 8.00005 15.342C8.78048 15.342 9.53591 15.0668 10.1334 14.5647C12.8094 12.32 16.0001 9.00935 16.0001 5.97802C16.0452 4.78103 15.6148 3.61482 14.8029 2.73417C13.9909 1.85352 12.8634 1.33001 11.6667 1.27802Z" fill="#D8D8D8"/>
</g>
<defs>
<clipPath id="clip0_97_9150">
<rect width="16" height="16" fill="white"/>
</clipPath>
</defs>
</svg>
