<svg width="276" height="36" viewBox="0 0 276 36" fill="none" xmlns="http://www.w3.org/2000/svg">
<circle cx="18" cy="18" r="18" fill="#EDEDED"/>
<path d="M20.98 23.16C20.8333 23.16 20.6733 23.12 20.5 23.04C20.34 22.9467 20.1667 22.8467 19.98 22.74L13.48 18.92C13.32 18.8133 13.2 18.68 13.12 18.52C13.04 18.3467 13 18.1733 13 18C13 17.8133 13.04 17.64 13.12 17.48C13.2 17.3067 13.32 17.1733 13.48 17.08L19.98 13.34C20.1533 13.2333 20.3133 13.1533 20.46 13.1C20.62 13.0333 20.7667 13 20.9 13C21.1667 13 21.4133 13.1333 21.64 13.4C21.88 13.6533 22 13.92 22 14.2C22 14.3333 21.96 14.4667 21.88 14.6C21.8133 14.72 21.7067 14.8267 21.56 14.92L14.62 18.94L14.48 16.94L21.54 21.16C21.7 21.2533 21.8133 21.3733 21.88 21.52C21.9467 21.6533 21.98 21.7933 21.98 21.94C21.98 22.26 21.8667 22.5467 21.64 22.8C21.4267 23.04 21.2067 23.16 20.98 23.16Z" fill="white"/>
<circle cx="58" cy="18" r="18" fill="#FE6A84"/>
<path d="M58.8733 26C58.4999 26 58.1933 25.8867 57.9533 25.66C57.7133 25.42 57.5933 25.1267 57.5933 24.78V14.7L57.8733 15.14L56.4133 16.22C56.2266 16.3667 55.9933 16.44 55.7133 16.44C55.3933 16.44 55.1133 16.32 54.8733 16.08C54.6333 15.84 54.5133 15.5533 54.5133 15.22C54.5133 14.7933 54.7199 14.4467 55.1333 14.18L58.0133 12.26C58.1466 12.1667 58.2933 12.1 58.4533 12.06C58.6266 12.02 58.7866 12 58.9333 12C59.3199 12 59.6266 12.12 59.8533 12.36C60.0799 12.5867 60.1933 12.8733 60.1933 13.22V24.78C60.1933 25.1267 60.0666 25.42 59.8133 25.66C59.5733 25.8867 59.2599 26 58.8733 26Z" fill="white"/>
<circle cx="98" cy="18" r="18" fill="#EDEDED"/>
<path d="M101.467 23.8C101.787 23.8 102.053 23.9067 102.267 24.12C102.48 24.3333 102.587 24.6 102.587 24.92C102.587 25.2267 102.48 25.4867 102.267 25.7C102.053 25.9 101.787 26 101.467 26H94.6666C94.32 26 94.0466 25.8933 93.8466 25.68C93.6466 25.4667 93.5466 25.1933 93.5466 24.86C93.5466 24.5267 93.6666 24.2333 93.9066 23.98L98.2666 19.32C98.76 18.7867 99.1466 18.24 99.4266 17.68C99.72 17.12 99.8666 16.6333 99.8666 16.22C99.8666 15.5533 99.6733 15.02 99.2866 14.62C98.9 14.2067 98.3866 14 97.7466 14C97.4933 14 97.2333 14.06 96.9666 14.18C96.7 14.3 96.44 14.4667 96.1866 14.68C95.9466 14.8933 95.72 15.14 95.5066 15.42C95.3466 15.6333 95.1866 15.7667 95.0266 15.82C94.8666 15.8733 94.72 15.9 94.5866 15.9C94.2933 15.9 94.02 15.7933 93.7666 15.58C93.5266 15.3533 93.4066 15.0933 93.4066 14.8C93.4066 14.5733 93.48 14.3533 93.6266 14.14C93.7866 13.9267 93.98 13.7067 94.2066 13.48C94.54 13.1467 94.9133 12.8533 95.3266 12.6C95.74 12.3467 96.1666 12.1533 96.6066 12.02C97.0466 11.8733 97.4733 11.8 97.8866 11.8C98.78 11.8 99.5533 11.98 100.207 12.34C100.873 12.6867 101.387 13.1867 101.747 13.84C102.107 14.48 102.287 15.24 102.287 16.12C102.287 16.8533 102.067 17.6733 101.627 18.58C101.2 19.4733 100.62 20.3133 99.8866 21.1L97.1866 23.98L96.9666 23.8H101.467Z" fill="white"/>
<circle cx="138" cy="18" r="18" fill="#EDEDED"/>
<path d="M134.369 23.18C134.489 23.18 134.616 23.2 134.749 23.24C134.896 23.28 135.056 23.36 135.229 23.48C135.456 23.6533 135.722 23.8067 136.029 23.94C136.349 24.0733 136.716 24.14 137.129 24.14C137.542 24.14 137.929 24.04 138.289 23.84C138.662 23.6267 138.969 23.3333 139.209 22.96C139.449 22.5733 139.569 22.1133 139.569 21.58C139.569 21.0733 139.462 20.6533 139.249 20.32C139.049 19.9867 138.776 19.7333 138.429 19.56C138.096 19.3867 137.736 19.3 137.349 19.3C137.056 19.3 136.809 19.3267 136.609 19.38C136.422 19.4333 136.236 19.4933 136.049 19.56C135.876 19.6133 135.669 19.64 135.429 19.64C135.122 19.64 134.882 19.5333 134.709 19.32C134.549 19.1067 134.469 18.8533 134.469 18.56C134.469 18.3733 134.502 18.2067 134.569 18.06C134.649 17.9133 134.762 17.7533 134.909 17.58L138.429 13.84L138.969 14.3H134.049C133.729 14.3 133.462 14.1933 133.249 13.98C133.036 13.7667 132.929 13.5 132.929 13.18C132.929 12.8733 133.036 12.62 133.249 12.42C133.462 12.2067 133.729 12.1 134.049 12.1H140.169C140.582 12.1 140.889 12.2133 141.089 12.44C141.302 12.6667 141.409 12.9533 141.409 13.3C141.409 13.4733 141.362 13.6467 141.269 13.82C141.176 13.98 141.062 14.1267 140.929 14.26L137.389 18.06L136.849 17.38C136.996 17.3133 137.196 17.2533 137.449 17.2C137.716 17.1467 137.936 17.12 138.109 17.12C138.896 17.12 139.576 17.3267 140.149 17.74C140.736 18.14 141.182 18.6667 141.489 19.32C141.809 19.96 141.969 20.6533 141.969 21.4C141.969 22.3867 141.749 23.24 141.309 23.96C140.869 24.68 140.249 25.2333 139.449 25.62C138.649 26.0067 137.716 26.2 136.649 26.2C136.156 26.2 135.669 26.14 135.189 26.02C134.709 25.9 134.296 25.74 133.949 25.54C133.656 25.38 133.456 25.2067 133.349 25.02C133.256 24.82 133.209 24.6333 133.209 24.46C133.209 24.1533 133.316 23.8667 133.529 23.6C133.756 23.32 134.036 23.18 134.369 23.18Z" fill="white"/>
<circle cx="178" cy="18" r="18" fill="#EDEDED"/>
<path d="M179.901 26C179.568 26 179.288 25.8867 179.061 25.66C178.834 25.42 178.721 25.1267 178.721 24.78V15.38L179.141 15.48L175.281 20.26L175.181 20H182.261C182.581 20 182.848 20.1067 183.061 20.32C183.274 20.5333 183.381 20.8 183.381 21.12C183.381 21.4267 183.274 21.6867 183.061 21.9C182.848 22.1 182.581 22.2 182.261 22.2H173.521C173.241 22.2 172.968 22.0867 172.701 21.86C172.448 21.6333 172.321 21.3533 172.321 21.02C172.321 20.7267 172.421 20.46 172.621 20.22L178.941 12.48C179.048 12.3333 179.188 12.22 179.361 12.14C179.534 12.0467 179.728 12 179.941 12C180.288 12 180.568 12.12 180.781 12.36C181.008 12.5867 181.121 12.8733 181.121 13.22V24.78C181.121 25.1267 181.001 25.42 180.761 25.66C180.534 25.8867 180.248 26 179.901 26Z" fill="white"/>
<circle cx="218" cy="18" r="18" fill="#FE6A84"/>
<path d="M214.346 24.32C214.079 24.32 213.826 24.1933 213.586 23.94C213.359 23.6733 213.246 23.4 213.246 23.12C213.246 22.9733 213.279 22.84 213.346 22.72C213.426 22.6 213.539 22.4933 213.686 22.4L220.626 18.38L220.766 20.38L213.706 16.16C213.546 16.0667 213.433 15.9533 213.366 15.82C213.299 15.6733 213.266 15.5267 213.266 15.38C213.266 15.06 213.379 14.78 213.606 14.54C213.833 14.2867 214.053 14.16 214.266 14.16C214.413 14.16 214.566 14.2067 214.726 14.3C214.899 14.38 215.079 14.4733 215.266 14.58L221.766 18.4C221.926 18.4933 222.046 18.6267 222.126 18.8C222.206 18.96 222.246 19.1333 222.246 19.32C222.246 19.5067 222.206 19.6867 222.126 19.86C222.046 20.02 221.926 20.1467 221.766 20.24L215.266 23.98C215.093 24.0733 214.933 24.1533 214.786 24.22C214.639 24.2867 214.493 24.32 214.346 24.32Z" fill="white"/>
<circle cx="258" cy="18" r="18" fill="#FE6A84"/>
<path d="M249.592 24.32C249.326 24.32 249.072 24.1933 248.832 23.94C248.606 23.6733 248.492 23.4 248.492 23.12C248.492 22.9733 248.526 22.84 248.592 22.72C248.672 22.6 248.786 22.4933 248.932 22.4L255.872 18.38L256.012 20.38L248.952 16.16C248.792 16.0667 248.679 15.9533 248.612 15.82C248.546 15.6733 248.512 15.5267 248.512 15.38C248.512 15.06 248.626 14.78 248.852 14.54C249.079 14.2867 249.299 14.16 249.512 14.16C249.659 14.16 249.812 14.2067 249.972 14.3C250.146 14.38 250.326 14.4733 250.512 14.58L257.012 18.4C257.172 18.4933 257.292 18.6267 257.372 18.8C257.452 18.96 257.492 19.1333 257.492 19.32C257.492 19.5067 257.452 19.6867 257.372 19.86C257.292 20.02 257.172 20.1467 257.012 20.24L250.512 23.98C250.339 24.0733 250.179 24.1533 250.032 24.22C249.886 24.2867 249.739 24.32 249.592 24.32ZM260.1 24.32C259.833 24.32 259.58 24.1933 259.34 23.94C259.113 23.6733 259 23.4 259 23.12C259 22.9733 259.033 22.84 259.1 22.72C259.18 22.6 259.293 22.4933 259.44 22.4L266.38 18.38L266.52 20.38L259.46 16.16C259.3 16.0667 259.187 15.9533 259.12 15.82C259.053 15.6733 259.02 15.5267 259.02 15.38C259.02 15.06 259.133 14.78 259.36 14.54C259.587 14.2867 259.807 14.16 260.02 14.16C260.167 14.16 260.32 14.2067 260.48 14.3C260.653 14.38 260.833 14.4733 261.02 14.58L267.52 18.4C267.68 18.4933 267.8 18.6267 267.88 18.8C267.96 18.96 268 19.1333 268 19.32C268 19.5067 267.96 19.6867 267.88 19.86C267.8 20.02 267.68 20.1467 267.52 20.24L261.02 23.98C260.847 24.0733 260.687 24.1533 260.54 24.22C260.393 24.2867 260.247 24.32 260.1 24.32Z" fill="white"/>
</svg>
