<svg width="85" height="28" viewBox="0 0 85 28" fill="none" xmlns="http://www.w3.org/2000/svg">
<path d="M10 14H17.5" stroke="#A9A9A9" stroke-width="1.5" stroke-linecap="round"/>
<path d="M0.5 4C0.5 2.067 2.067 0.5 4 0.5H27.5V27.5H4C2.067 27.5 0.5 25.933 0.5 24V4Z" stroke="#ECF0EF"/>
<path d="M42.8733 22C42.4999 22 42.1933 21.8867 41.9533 21.66C41.7133 21.42 41.5933 21.1267 41.5933 20.78V10.7L41.8733 11.14L40.4133 12.22C40.2266 12.3667 39.9933 12.44 39.7133 12.44C39.3933 12.44 39.1133 12.32 38.8733 12.08C38.6333 11.84 38.5133 11.5533 38.5133 11.22C38.5133 10.7933 38.7199 10.4467 39.1333 10.18L42.0133 8.26C42.1466 8.16667 42.2933 8.1 42.4533 8.06C42.6266 8.02 42.7866 8 42.9333 8C43.3199 8 43.6266 8.12 43.8533 8.36C44.0799 8.58667 44.1933 8.87333 44.1933 9.22V20.78C44.1933 21.1267 44.0666 21.42 43.8133 21.66C43.5733 21.8867 43.2599 22 42.8733 22Z" fill="#A9A9A9"/>
<path d="M28 1H56V-1H28V1ZM56 27H28V29H56V27Z" fill="#ECF0EF" mask="url(#path-4-inside-1_1_1168)"/>
<path d="M66.5 14H74" stroke="#A9A9A9" stroke-width="1.5" stroke-linecap="round"/>
<path d="M70.25 10.25L70.25 17.75" stroke="#A9A9A9" stroke-width="1.5" stroke-linecap="round"/>
<path d="M56.5 0.5H81C82.933 0.5 84.5 2.067 84.5 4V24C84.5 25.933 82.933 27.5 81 27.5H56.5V0.5Z" stroke="#ECF0EF"/>
</svg>
