<svg width="24" height="24" viewBox="0 0 24 24" fill="none" xmlns="http://www.w3.org/2000/svg">
<path fill-rule="evenodd" clip-rule="evenodd" d="M5.93029 5.33333V6.66667H3.90782C3.24365 6.6668 2.60365 6.88567 2.11409 7.2801C1.62453 7.67453 1.32096 8.21587 1.26327 8.79733L0.0100348 21.464C-0.0219239 21.7861 0.0226511 22.1106 0.140932 22.4168C0.259213 22.7229 0.448618 23.0042 0.69713 23.2426C0.945643 23.4811 1.24784 23.6715 1.58454 23.8019C1.92125 23.9323 2.28512 23.9997 2.65306 24H21.3454C21.7135 23.9999 22.0775 23.9326 22.4144 23.8023C22.7513 23.672 23.0537 23.4816 23.3024 23.2431C23.551 23.0046 23.7406 22.7233 23.8589 22.4171C23.9773 22.1108 24.0219 21.7862 23.99 21.464L22.7367 8.79733C22.679 8.21564 22.3752 7.67411 21.8854 7.27965C21.3955 6.88518 20.7551 6.66646 20.0907 6.66667H18.0682V5.33333C18.0682 3.91885 17.4288 2.56229 16.2906 1.5621C15.1525 0.561903 13.6088 0 11.9992 0C10.3897 0 8.84599 0.561903 7.70785 1.5621C6.5697 2.56229 5.93029 3.91885 5.93029 5.33333ZM11.9992 2C10.9932 2 10.0285 2.35119 9.31712 2.97631C8.60578 3.60143 8.20615 4.44928 8.20615 5.33333V6.66667H15.7923V5.33333C15.7923 4.44928 15.3927 3.60143 14.6814 2.97631C13.97 2.35119 13.0052 2 11.9992 2ZM8.20615 12C8.20615 12.8841 8.60578 13.7319 9.31712 14.357C10.0285 14.9821 10.9932 15.3333 11.9992 15.3333C13.0052 15.3333 13.97 14.9821 14.6814 14.357C15.3927 13.7319 15.7923 12.8841 15.7923 12V10.3333C15.7923 10.0681 15.9122 9.81376 16.1256 9.62623C16.339 9.43869 16.6285 9.33333 16.9303 9.33333C17.2321 9.33333 17.5215 9.43869 17.7349 9.62623C17.9483 9.81376 18.0682 10.0681 18.0682 10.3333V12C18.0682 13.4145 17.4288 14.771 16.2906 15.7712C15.1525 16.7714 13.6088 17.3333 11.9992 17.3333C10.3897 17.3333 8.84599 16.7714 7.70785 15.7712C6.5697 14.771 5.93029 13.4145 5.93029 12V10.3333C5.93029 10.0681 6.05018 9.81376 6.26358 9.62623C6.47699 9.43869 6.76642 9.33333 7.06822 9.33333C7.37002 9.33333 7.65945 9.43869 7.87286 9.62623C8.08626 9.81376 8.20615 10.0681 8.20615 10.3333V12Z" fill="#FE6A84"/>
</svg>
