<svg width="28" height="28" viewBox="0 0 28 28" fill="none" xmlns="http://www.w3.org/2000/svg">
<path d="M16.9693 10.7625V15.2062C16.9693 15.3187 16.8819 15.4062 16.7697 15.4062H16.0587C15.9901 15.4062 15.9278 15.3687 15.8966 15.325L13.8635 12.575V15.2125C13.8635 15.325 13.7762 15.4125 13.664 15.4125H12.953C12.8408 15.4125 12.7534 15.325 12.7534 15.2125V10.7688C12.7534 10.6563 12.8408 10.5688 12.953 10.5688H13.6577C13.7201 10.5688 13.7887 10.6 13.8199 10.6563L15.8529 13.4063V10.7688C15.8529 10.6563 15.9402 10.5688 16.0525 10.5688H16.7634C16.8757 10.5625 16.9693 10.6563 16.9693 10.7625ZM11.8554 10.5625H11.1445C11.0322 10.5625 10.9449 10.65 10.9449 10.7625V15.2062C10.9449 15.3187 11.0322 15.4062 11.1445 15.4062H11.8554C11.9677 15.4062 12.055 15.3187 12.055 15.2062V10.7625C12.055 10.6563 11.9677 10.5625 11.8554 10.5625ZM10.1404 14.2875H8.20088V10.7625C8.20088 10.65 8.11357 10.5625 8.00131 10.5625H7.29036C7.17811 10.5625 7.0908 10.65 7.0908 10.7625V15.2062C7.0908 15.2625 7.10951 15.3062 7.14692 15.3437C7.18434 15.375 7.228 15.4 7.28413 15.4H10.1342C10.2464 15.4 10.3337 15.3125 10.3337 15.2V14.4875C10.3337 14.3812 10.2464 14.2875 10.1404 14.2875ZM20.7111 10.5625H17.8611C17.755 10.5625 17.6615 10.65 17.6615 10.7625V15.2062C17.6615 15.3125 17.7488 15.4062 17.8611 15.4062H20.7111C20.8233 15.4062 20.9107 15.3187 20.9107 15.2062V14.4937C20.9107 14.3812 20.8233 14.2938 20.7111 14.2938H18.7716V13.5438H20.7111C20.8233 13.5438 20.9107 13.4563 20.9107 13.3438V12.625C20.9107 12.5125 20.8233 12.425 20.7111 12.425H18.7716V11.675H20.7111C20.8233 11.675 20.9107 11.5875 20.9107 11.475V10.7625C20.9044 10.6563 20.8171 10.5625 20.7111 10.5625ZM27.9391 5.10626V22.9375C27.9328 25.7375 25.6441 28.0062 22.8439 28H5.05149C2.25759 27.9937 -0.00622354 25.6937 1.28542e-05 22.8937V5.06251C0.00624925 2.26251 2.30124 -0.00623711 5.09515 1.28823e-05H22.8876C25.6815 0.00626288 27.9453 2.30001 27.9391 5.10626ZM24.0975 12.7688C24.0975 8.20626 19.5324 4.49376 13.9259 4.49376C8.31937 4.49376 3.75432 8.20626 3.75432 12.7688C3.75432 16.8562 7.37143 20.2812 12.2608 20.9312C13.4519 21.1875 13.3147 21.625 13.0466 23.2312C13.0029 23.4875 12.8408 24.2375 13.9259 23.7812C15.011 23.325 19.7819 20.325 21.9209 17.8625C23.3927 16.2375 24.0975 14.5938 24.0975 12.7688Z" fill="#FE6A84"/>
</svg>
