<svg width="28" height="28" viewBox="0 0 28 28" fill="none" xmlns="http://www.w3.org/2000/svg">
<path d="M28 4.72822C26.9703 5.18925 25.8642 5.50076 24.7013 5.64157C25.9012 4.91611 26.7988 3.77434 27.2268 2.42928C26.0995 3.10587 24.8657 3.58211 23.5791 3.8373C22.7139 2.90385 21.5679 2.28515 20.3191 2.07724C19.0702 1.86934 17.7884 2.08387 16.6725 2.68753C15.5567 3.29118 14.6693 4.25019 14.1482 5.41566C13.627 6.58113 13.5012 7.88786 13.7904 9.13296C11.5062 9.01707 9.27163 8.41717 7.23174 7.37219C5.19185 6.32721 3.39221 4.8605 1.94962 3.06725C1.45636 3.92702 1.17273 4.92385 1.17273 5.98547C1.17218 6.94118 1.4051 7.88224 1.85081 8.72517C2.29653 9.5681 2.94127 10.2868 3.72783 10.8176C2.81563 10.7883 1.92356 10.5392 1.12587 10.0912V10.1659C1.12578 11.5063 1.58464 12.8055 2.42461 13.843C3.26457 14.8804 4.43389 15.5923 5.73417 15.8578C4.88796 16.0892 4.00077 16.1233 3.13961 15.9575C3.50647 17.1109 4.22108 18.1194 5.1834 18.842C6.14572 19.5646 7.30757 19.965 8.5063 19.9872C6.47139 21.6013 3.95829 22.4769 1.37127 22.473C0.913004 22.4732 0.455128 22.4461 0 22.392C2.62597 24.0981 5.68279 25.0035 8.80472 25C19.3729 25 25.1502 16.1556 25.1502 8.48502C25.1502 8.23581 25.144 7.98411 25.1329 7.73491C26.2567 6.91374 27.2267 5.89687 27.9975 4.73196L28 4.72822Z" fill="#FE6A84"/>
</svg>
