<svg width="122" height="40" viewBox="0 0 122 40" fill="none" xmlns="http://www.w3.org/2000/svg">
<path d="M14.2859 20H25.0002" stroke="#A9A9A9" stroke-width="2.14286" stroke-linecap="round"/>
<path d="M0.5 4C0.5 2.067 2.067 0.5 4 0.5H39.5V39.5H4C2.067 39.5 0.5 37.933 0.5 36V4Z" stroke="#ECF0EF"/>
<path d="M61.998 28.4286C61.5714 28.4286 61.2209 28.299 60.9466 28.04C60.6723 27.7657 60.5352 27.4305 60.5352 27.0343V15.5143L60.8552 16.0171L59.1866 17.2514C58.9733 17.4191 58.7066 17.5029 58.3866 17.5029C58.0209 17.5029 57.7009 17.3657 57.4266 17.0914C57.1523 16.8171 57.0152 16.4895 57.0152 16.1086C57.0152 15.621 57.2514 15.2248 57.7238 14.92L61.0152 12.7257C61.1676 12.6191 61.3352 12.5429 61.518 12.4971C61.7161 12.4514 61.899 12.4286 62.0666 12.4286C62.5085 12.4286 62.859 12.5657 63.118 12.84C63.3771 13.0991 63.5066 13.4267 63.5066 13.8229V27.0343C63.5066 27.4305 63.3618 27.7657 63.0723 28.04C62.798 28.299 62.4399 28.4286 61.998 28.4286Z" fill="#A9A9A9"/>
<path d="M40 1H82V-1H40V1ZM82 39H40V41H82V39Z" fill="#ECF0EF" mask="url(#path-3-inside-1_1_1175)"/>
<path d="M96.2859 20H107" stroke="#A9A9A9" stroke-width="2.14286" stroke-linecap="round"/>
<path d="M101.643 14.6429L101.643 25.3571" stroke="#A9A9A9" stroke-width="2.14286" stroke-linecap="round"/>
<path d="M82.5 0.5H118C119.933 0.5 121.5 2.067 121.5 4V36C121.5 37.933 119.933 39.5 118 39.5H82.5V0.5Z" stroke="#ECF0EF"/>
</svg>
