<svg width="28" height="28" viewBox="0 0 28 28" fill="none" xmlns="http://www.w3.org/2000/svg">
<g clip-path="url(#clip0_1_1376)">
<path d="M20.4167 2.23651C19.103 2.25695 17.8179 2.62367 16.6913 3.29966C15.5646 3.97565 14.6363 4.93696 14 6.08651C13.3638 4.93696 12.4355 3.97565 11.3088 3.29966C10.1822 2.62367 8.89709 2.25695 7.58337 2.23651C5.48913 2.3275 3.51602 3.24364 2.09511 4.78478C0.674202 6.32592 -0.0790096 8.36679 3.27192e-05 10.4615C3.27192e-05 15.7663 5.5837 21.56 10.2667 25.4882C11.3123 26.3668 12.6343 26.8485 14 26.8485C15.3658 26.8485 16.6878 26.3668 17.7334 25.4882C22.4164 21.56 28 15.7663 28 10.4615C28.0791 8.36679 27.3259 6.32592 25.905 4.78478C24.484 3.24364 22.5109 2.3275 20.4167 2.23651Z" fill="#FE6A84"/>
</g>
<defs>
<clipPath id="clip0_1_1376">
<rect width="28" height="28" fill="white"/>
</clipPath>
</defs>
</svg>
