<svg width="20" height="20" viewBox="0 0 20 20" fill="none" xmlns="http://www.w3.org/2000/svg">
<g clip-path="url(#clip0_1_1144)">
<path d="M10 12.3108L2.83193 19.5117C2.18389 20.1628 1.13407 20.1628 0.486029 19.5117C-0.16201 18.8607 -0.16201 17.8061 0.486029 17.1551L7.61057 10.0008L0.487324 2.8449C-0.160715 2.1939 -0.160715 1.13926 0.487324 0.488256C1.13536 -0.162752 2.18519 -0.162752 2.83323 0.488256L10 7.68786L17.1668 0.488256C17.8148 -0.162752 18.8646 -0.162752 19.5127 0.488256C20.1607 1.13926 20.1607 2.1939 19.5127 2.8449L12.3894 10.0008L19.514 17.1551C20.162 17.8061 20.162 18.8607 19.514 19.5117C18.8659 20.1628 17.8161 20.1628 17.1681 19.5117L10 12.3108Z" fill="#858484"/>
</g>
<defs>
<clipPath id="clip0_1_1144">
<rect width="20" height="20" fill="white"/>
</clipPath>
</defs>
</svg>
