<svg width="72" height="32" viewBox="0 0 72 32" fill="none" xmlns="http://www.w3.org/2000/svg">
<circle cx="16" cy="16" r="12" fill="#FE6A84"/>
<path d="M40.832 22C40.6827 22 40.56 21.952 40.464 21.856C40.3787 21.76 40.336 21.648 40.336 21.52V11.328H41.328V21.52C41.328 21.648 41.28 21.76 41.184 21.856C41.088 21.952 40.9707 22 40.832 22ZM37.024 11.712C36.896 11.712 36.784 11.6693 36.688 11.584C36.592 11.4987 36.544 11.3867 36.544 11.248C36.544 11.12 36.592 11.0133 36.688 10.928C36.784 10.8427 36.896 10.8 37.024 10.8H44.64C44.768 10.8 44.88 10.8427 44.976 10.928C45.072 11.0133 45.12 11.1253 45.12 11.264C45.12 11.4027 45.072 11.5147 44.976 11.6C44.88 11.6747 44.768 11.712 44.64 11.712H37.024ZM52.0305 13.824C52.1692 13.824 52.2812 13.872 52.3665 13.968C52.4625 14.064 52.5105 14.1813 52.5105 14.32V21.52C52.5105 21.648 52.4625 21.76 52.3665 21.856C52.2705 21.952 52.1585 22 52.0305 22C51.8918 22 51.7745 21.952 51.6785 21.856C51.5932 21.76 51.5505 21.648 51.5505 21.52V19.616L51.8225 19.488C51.8225 19.7867 51.7372 20.0907 51.5665 20.4C51.4065 20.7093 51.1825 20.9973 50.8945 21.264C50.6065 21.5307 50.2652 21.7493 49.8705 21.92C49.4865 22.08 49.0705 22.16 48.6225 22.16C47.8972 22.16 47.2465 21.9733 46.6705 21.6C46.1052 21.2267 45.6572 20.7147 45.3265 20.064C45.0065 19.4133 44.8465 18.6827 44.8465 17.872C44.8465 17.04 45.0118 16.3093 45.3425 15.68C45.6732 15.04 46.1212 14.5387 46.6865 14.176C47.2518 13.8133 47.8918 13.632 48.6065 13.632C49.0652 13.632 49.4918 13.712 49.8865 13.872C50.2918 14.032 50.6438 14.2507 50.9425 14.528C51.2412 14.8053 51.4705 15.1253 51.6305 15.488C51.8012 15.84 51.8865 16.208 51.8865 16.592L51.5505 16.352V14.32C51.5505 14.1813 51.5932 14.064 51.6785 13.968C51.7745 13.872 51.8918 13.824 52.0305 13.824ZM48.7025 21.264C49.2678 21.264 49.7692 21.12 50.2065 20.832C50.6438 20.5333 50.9852 20.128 51.2305 19.616C51.4865 19.0933 51.6145 18.512 51.6145 17.872C51.6145 17.2427 51.4865 16.6773 51.2305 16.176C50.9852 15.6747 50.6438 15.2747 50.2065 14.976C49.7692 14.6773 49.2678 14.528 48.7025 14.528C48.1478 14.528 47.6465 14.672 47.1985 14.96C46.7612 15.248 46.4145 15.6427 46.1585 16.144C45.9132 16.6453 45.7905 17.2213 45.7905 17.872C45.7905 18.512 45.9132 19.0933 46.1585 19.616C46.4145 20.128 46.7612 20.5333 47.1985 20.832C47.6358 21.12 48.1372 21.264 48.7025 21.264ZM48.5905 13.168C48.5372 13.168 48.4785 13.1413 48.4145 13.088C48.3612 13.024 48.3345 12.9547 48.3345 12.88C48.3345 12.816 48.3612 12.7413 48.4145 12.656L49.3905 11.136C49.4438 11.0507 49.5132 10.9707 49.5985 10.896C49.6945 10.8213 49.8065 10.784 49.9345 10.784C50.0945 10.784 50.2225 10.8267 50.3185 10.912C50.4145 10.9973 50.4572 11.12 50.4465 11.28C50.4465 11.3547 50.4305 11.424 50.3985 11.488C50.3772 11.5413 50.3398 11.5947 50.2865 11.648L49.0865 12.912C49.0225 12.9867 48.9478 13.0507 48.8625 13.104C48.7772 13.1467 48.6865 13.168 48.5905 13.168ZM62.6456 17.904C62.6456 18.7147 62.4696 19.4453 62.1176 20.096C61.7656 20.736 61.2856 21.2427 60.6776 21.616C60.0696 21.9787 59.3763 22.16 58.5976 22.16C57.8403 22.16 57.1523 21.9787 56.5336 21.616C55.9256 21.2427 55.4403 20.736 55.0776 20.096C54.7256 19.4453 54.5496 18.7147 54.5496 17.904C54.5496 17.0827 54.7256 16.352 55.0776 15.712C55.4403 15.072 55.9256 14.5653 56.5336 14.192C57.1523 13.8187 57.8403 13.632 58.5976 13.632C59.3763 13.632 60.0696 13.8187 60.6776 14.192C61.2856 14.5653 61.7656 15.072 62.1176 15.712C62.4696 16.352 62.6456 17.0827 62.6456 17.904ZM61.6856 17.904C61.6856 17.2533 61.5523 16.6773 61.2856 16.176C61.019 15.664 60.651 15.264 60.1816 14.976C59.723 14.6773 59.195 14.528 58.5976 14.528C58.0216 14.528 57.499 14.6773 57.0296 14.976C56.5603 15.264 56.187 15.664 55.9096 16.176C55.643 16.6773 55.5096 17.2533 55.5096 17.904C55.5096 18.5547 55.643 19.1307 55.9096 19.632C56.187 20.1333 56.5603 20.5333 57.0296 20.832C57.499 21.12 58.0216 21.264 58.5976 21.264C59.195 21.264 59.723 21.12 60.1816 20.832C60.651 20.5333 61.019 20.1333 61.2856 19.632C61.5523 19.1307 61.6856 18.5547 61.6856 17.904Z" fill="#5A5A5A"/>
<rect x="0.5" y="0.5" width="71" height="31" rx="15.5" stroke="#D8D8D8"/>
</svg>
