<svg width="28" height="28" viewBox="0 0 28 28" fill="none" xmlns="http://www.w3.org/2000/svg">
<g clip-path="url(#clip0_1_1374)">
<path d="M20.4167 2.23651C19.103 2.25695 17.8179 2.62367 16.6913 3.29966C15.5646 3.97565 14.6363 4.93696 14 6.08651C13.3638 4.93696 12.4355 3.97565 11.3088 3.29966C10.1822 2.62367 8.89709 2.25695 7.58337 2.23651C5.48913 2.3275 3.51602 3.24364 2.09511 4.78478C0.674202 6.32592 -0.0790096 8.36679 3.27192e-05 10.4615C3.27192e-05 15.7663 5.5837 21.56 10.2667 25.4882C11.3123 26.3668 12.6343 26.8485 14 26.8485C15.3658 26.8485 16.6878 26.3668 17.7334 25.4882C22.4164 21.56 28 15.7663 28 10.4615C28.0791 8.36679 27.3259 6.32592 25.905 4.78478C24.484 3.24364 22.5109 2.3275 20.4167 2.23651ZM16.2342 23.7032C15.6088 24.2298 14.8176 24.5186 14 24.5186C13.1825 24.5186 12.3912 24.2298 11.7659 23.7032C5.77153 18.6737 2.33337 13.8483 2.33337 10.4615C2.25361 8.98535 2.76079 7.53753 3.74429 6.43383C4.72779 5.33013 6.10781 4.66009 7.58337 4.56984C9.05893 4.66009 10.4389 5.33013 11.4224 6.43383C12.4059 7.53753 12.9131 8.98535 12.8334 10.4615C12.8334 10.7709 12.9563 11.0677 13.1751 11.2865C13.3939 11.5053 13.6906 11.6282 14 11.6282C14.3095 11.6282 14.6062 11.5053 14.825 11.2865C15.0438 11.0677 15.1667 10.7709 15.1667 10.4615C15.0869 8.98535 15.5941 7.53753 16.5776 6.43383C17.5611 5.33013 18.9411 4.66009 20.4167 4.56984C21.8923 4.66009 23.2723 5.33013 24.2558 6.43383C25.2393 7.53753 25.7465 8.98535 25.6667 10.4615C25.6667 13.8483 22.2285 18.6737 16.2342 23.6985V23.7032Z" fill="#FE6A84"/>
</g>
<defs>
<clipPath id="clip0_1_1374">
<rect width="28" height="28" fill="white"/>
</clipPath>
</defs>
</svg>
