<svg width="24" height="24" viewBox="0 0 24 24" fill="none" xmlns="http://www.w3.org/2000/svg">
<circle cx="12" cy="12" r="11.5" stroke="#FE6A84"/>
<path d="M16.2349 14.9645C16.5865 15.316 16.5865 15.8855 16.2349 16.2371C16.0606 16.4128 15.83 16.5 15.5994 16.5C15.3688 16.5 15.1387 16.4121 14.9632 16.2363L11.9996 13.2743L9.03635 16.2356C8.86058 16.4128 8.63026 16.5 8.39993 16.5C8.1696 16.5 7.93956 16.4128 7.76365 16.2356C7.41212 15.8841 7.41212 15.3146 7.76365 14.9631L10.7278 11.9989L7.76365 9.03621C7.41212 8.68467 7.41212 8.11519 7.76365 7.76365C8.11519 7.41212 8.68467 7.41212 9.03621 7.76365L11.9996 10.7292L14.9638 7.76506C15.3153 7.41352 15.8848 7.41352 16.2363 7.76506C16.5879 8.11659 16.5879 8.68608 16.2363 9.03761L13.2722 12.0018L16.2349 14.9645Z" fill="#FE6A84"/>
</svg>
