<svg width="81" height="32" viewBox="0 0 81 32" fill="none" xmlns="http://www.w3.org/2000/svg">
<circle cx="16" cy="16" r="12" fill="#FE6A84"/>
<path d="M40.592 22.16C39.7813 22.1707 39.0773 22.0427 38.48 21.776C37.8827 21.5093 37.312 21.1093 36.768 20.576C36.7147 20.5333 36.6667 20.48 36.624 20.416C36.592 20.352 36.576 20.2773 36.576 20.192C36.576 20.064 36.624 19.9467 36.72 19.84C36.8267 19.7333 36.944 19.68 37.072 19.68C37.2 19.68 37.3173 19.7333 37.424 19.84C37.84 20.288 38.3093 20.6293 38.832 20.864C39.3653 21.0987 39.936 21.216 40.544 21.216C41.056 21.216 41.5093 21.136 41.904 20.976C42.3093 20.816 42.6293 20.5867 42.864 20.288C43.0987 19.9893 43.216 19.6427 43.216 19.248C43.216 18.7573 43.0827 18.3627 42.816 18.064C42.5493 17.7547 42.1973 17.504 41.76 17.312C41.3227 17.1093 40.8373 16.928 40.304 16.768C39.8667 16.64 39.4507 16.496 39.056 16.336C38.6613 16.1653 38.3093 15.9627 38 15.728C37.6907 15.4827 37.4507 15.184 37.28 14.832C37.1093 14.48 37.024 14.0533 37.024 13.552C37.024 12.9867 37.1733 12.4853 37.472 12.048C37.7707 11.6107 38.192 11.2693 38.736 11.024C39.2907 10.768 39.9307 10.64 40.656 10.64C41.2853 10.64 41.888 10.7467 42.464 10.96C43.0507 11.1733 43.5147 11.488 43.856 11.904C44.016 12.0747 44.096 12.2293 44.096 12.368C44.096 12.4747 44.0427 12.5813 43.936 12.688C43.8293 12.7947 43.712 12.848 43.584 12.848C43.4773 12.848 43.3867 12.8107 43.312 12.736C43.1307 12.512 42.9013 12.3147 42.624 12.144C42.3467 11.9627 42.0373 11.824 41.696 11.728C41.3653 11.632 41.0187 11.584 40.656 11.584C40.1547 11.584 39.7013 11.664 39.296 11.824C38.9013 11.9733 38.5867 12.192 38.352 12.48C38.128 12.768 38.016 13.1147 38.016 13.52C38.016 13.968 38.144 14.336 38.4 14.624C38.656 14.912 38.992 15.152 39.408 15.344C39.824 15.5253 40.2667 15.696 40.736 15.856C41.1947 15.984 41.632 16.1333 42.048 16.304C42.4747 16.464 42.848 16.6667 43.168 16.912C43.4987 17.1573 43.7547 17.4667 43.936 17.84C44.128 18.2133 44.224 18.6827 44.224 19.248C44.224 19.792 44.0693 20.2827 43.76 20.72C43.4507 21.1573 43.024 21.504 42.48 21.76C41.9467 22.016 41.3173 22.1493 40.592 22.16ZM49.9444 22.16C49.123 22.16 48.3977 21.984 47.7684 21.632C47.139 21.28 46.6484 20.7893 46.2964 20.16C45.9444 19.5307 45.7684 18.7947 45.7684 17.952C45.7684 17.0453 45.9444 16.272 46.2964 15.632C46.659 14.992 47.123 14.5013 47.6884 14.16C48.2644 13.808 48.8724 13.632 49.5124 13.632C49.9817 13.632 50.435 13.7173 50.8724 13.888C51.3204 14.048 51.715 14.2933 52.0564 14.624C52.4084 14.944 52.6857 15.3387 52.8884 15.808C53.1017 16.2773 53.219 16.8213 53.2404 17.44C53.2297 17.568 53.1764 17.68 53.0804 17.776C52.9844 17.8613 52.8724 17.904 52.7444 17.904H46.3284L46.1364 17.04H52.4404L52.2324 17.232V16.912C52.1897 16.4107 52.0297 15.984 51.7524 15.632C51.475 15.28 51.139 15.0133 50.7444 14.832C50.3497 14.6507 49.939 14.56 49.5124 14.56C49.1924 14.56 48.8617 14.624 48.5204 14.752C48.1897 14.88 47.8857 15.0827 47.6084 15.36C47.3417 15.6267 47.123 15.9733 46.9524 16.4C46.7817 16.816 46.6964 17.312 46.6964 17.888C46.6964 18.5173 46.8244 19.088 47.0804 19.6C47.3364 20.112 47.7044 20.5173 48.1844 20.816C48.675 21.1147 49.2564 21.264 49.9284 21.264C50.3017 21.264 50.6377 21.2107 50.9364 21.104C51.235 20.9973 51.4964 20.8587 51.7204 20.688C51.9444 20.5067 52.131 20.32 52.2804 20.128C52.3977 20.032 52.515 19.984 52.6324 19.984C52.739 19.984 52.8297 20.0267 52.9044 20.112C52.9897 20.1973 53.0324 20.2933 53.0324 20.4C53.0324 20.528 52.979 20.64 52.8724 20.736C52.5524 21.12 52.1364 21.456 51.6244 21.744C51.1124 22.0213 50.5524 22.16 49.9444 22.16ZM54.7673 13.856H58.4953C58.6233 13.856 58.7299 13.904 58.8153 14C58.9006 14.0853 58.9433 14.192 58.9433 14.32C58.9433 14.4373 58.9006 14.5387 58.8153 14.624C58.7299 14.7093 58.6233 14.752 58.4953 14.752H54.7673C54.6393 14.752 54.5273 14.7093 54.4313 14.624C54.3459 14.528 54.3033 14.4213 54.3033 14.304C54.3033 14.176 54.3459 14.0693 54.4313 13.984C54.5273 13.8987 54.6393 13.856 54.7673 13.856ZM56.4153 11.6C56.5539 11.6 56.6659 11.648 56.7513 11.744C56.8473 11.84 56.8953 11.952 56.8953 12.08V20.112C56.8953 20.4107 56.9326 20.6347 57.0073 20.784C57.0926 20.9333 57.1993 21.0347 57.3273 21.088C57.4553 21.1307 57.5833 21.152 57.7113 21.152C57.7966 21.152 57.8713 21.1413 57.9353 21.12C58.0099 21.088 58.0899 21.072 58.1753 21.072C58.2713 21.072 58.3513 21.1093 58.4153 21.184C58.4899 21.2587 58.5273 21.3547 58.5273 21.472C58.5273 21.6213 58.4419 21.7493 58.2713 21.856C58.1006 21.952 57.8979 22 57.6633 22C57.5673 22 57.4233 21.9947 57.2313 21.984C57.0393 21.9627 56.8419 21.904 56.6393 21.808C56.4366 21.7013 56.2659 21.52 56.1273 21.264C55.9993 21.008 55.9353 20.64 55.9353 20.16V12.08C55.9353 11.952 55.9779 11.84 56.0633 11.744C56.1593 11.648 56.2766 11.6 56.4153 11.6ZM69.7001 22C69.5615 22 69.4495 21.952 69.3641 21.856C69.2788 21.76 69.2361 21.648 69.2361 21.52V12.128L69.4441 12.256L65.2361 17.824L65.1881 17.648H71.3321C71.4601 17.648 71.5668 17.6907 71.6521 17.776C71.7481 17.8613 71.7961 17.968 71.7961 18.096C71.7961 18.224 71.7481 18.3307 71.6521 18.416C71.5668 18.5013 71.4601 18.544 71.3321 18.544H64.5321C64.4041 18.544 64.2921 18.496 64.1961 18.4C64.1001 18.2933 64.0521 18.176 64.0521 18.048C64.0521 17.9307 64.0895 17.824 64.1641 17.728L69.3161 10.992C69.3695 10.9173 69.4335 10.8693 69.5081 10.848C69.5935 10.816 69.6628 10.8 69.7161 10.8C69.8548 10.8 69.9668 10.848 70.0521 10.944C70.1481 11.04 70.1961 11.152 70.1961 11.28V21.52C70.1961 21.648 70.1481 21.76 70.0521 21.856C69.9561 21.952 69.8388 22 69.7001 22Z" fill="#5A5A5A"/>
<rect x="0.5" y="0.5" width="80" height="31" rx="15.5" stroke="#D8D8D8"/>
</svg>
