<svg width="62" height="32" viewBox="0 0 62 32" fill="none" xmlns="http://www.w3.org/2000/svg">
<circle cx="16" cy="16" r="12" fill="#FE6A84"/>
<path d="M43.696 21.056C43.824 21.056 43.936 21.104 44.032 21.2C44.128 21.2853 44.176 21.392 44.176 21.52C44.176 21.6587 44.128 21.776 44.032 21.872C43.936 21.9573 43.824 22 43.696 22H37.984C37.8453 22 37.728 21.952 37.632 21.856C37.5467 21.76 37.504 21.648 37.504 21.52V11.28C37.504 11.152 37.552 11.04 37.648 10.944C37.744 10.848 37.8667 10.8 38.016 10.8C38.144 10.8 38.256 10.848 38.352 10.944C38.4587 11.04 38.512 11.152 38.512 11.28V21.328L38.208 21.056H43.696ZM49.4756 22.16C48.6543 22.16 47.929 21.984 47.2996 21.632C46.6703 21.28 46.1796 20.7893 45.8276 20.16C45.4756 19.5307 45.2996 18.7947 45.2996 17.952C45.2996 17.0453 45.4756 16.272 45.8276 15.632C46.1903 14.992 46.6543 14.5013 47.2196 14.16C47.7956 13.808 48.4036 13.632 49.0436 13.632C49.513 13.632 49.9663 13.7173 50.4036 13.888C50.8516 14.048 51.2463 14.2933 51.5876 14.624C51.9396 14.944 52.217 15.3387 52.4196 15.808C52.633 16.2773 52.7503 16.8213 52.7716 17.44C52.761 17.568 52.7076 17.68 52.6116 17.776C52.5156 17.8613 52.4036 17.904 52.2756 17.904H45.8596L45.6676 17.04H51.9716L51.7636 17.232V16.912C51.721 16.4107 51.561 15.984 51.2836 15.632C51.0063 15.28 50.6703 15.0133 50.2756 14.832C49.881 14.6507 49.4703 14.56 49.0436 14.56C48.7236 14.56 48.393 14.624 48.0516 14.752C47.721 14.88 47.417 15.0827 47.1396 15.36C46.873 15.6267 46.6543 15.9733 46.4836 16.4C46.313 16.816 46.2276 17.312 46.2276 17.888C46.2276 18.5173 46.3556 19.088 46.6116 19.6C46.8676 20.112 47.2356 20.5173 47.7156 20.816C48.2063 21.1147 48.7876 21.264 49.4596 21.264C49.833 21.264 50.169 21.2107 50.4676 21.104C50.7663 20.9973 51.0276 20.8587 51.2516 20.688C51.4756 20.5067 51.6623 20.32 51.8116 20.128C51.929 20.032 52.0463 19.984 52.1636 19.984C52.2703 19.984 52.361 20.0267 52.4356 20.112C52.521 20.1973 52.5636 20.2933 52.5636 20.4C52.5636 20.528 52.5103 20.64 52.4036 20.736C52.0836 21.12 51.6676 21.456 51.1556 21.744C50.6436 22.0213 50.0836 22.16 49.4756 22.16ZM47.8756 10.704C48.0356 10.5653 48.2116 10.448 48.4036 10.352C48.6063 10.256 48.8303 10.208 49.0756 10.208C49.4063 10.208 49.6623 10.272 49.8436 10.4C50.0356 10.528 50.169 10.688 50.2436 10.88C50.329 11.0613 50.3716 11.232 50.3716 11.392C50.3716 11.5733 50.3236 11.7387 50.2276 11.888C50.1316 12.0267 50.0036 12.1813 49.8436 12.352C49.7796 12.416 49.7316 12.48 49.6996 12.544C49.6676 12.608 49.6463 12.688 49.6356 12.784C49.625 12.8693 49.5876 12.9387 49.5236 12.992C49.4596 13.0453 49.385 13.072 49.2996 13.072C49.193 13.072 49.1076 13.04 49.0436 12.976C48.9903 12.912 48.9636 12.8427 48.9636 12.768C48.9636 12.672 48.9743 12.5707 48.9956 12.464C49.0276 12.3467 49.097 12.2347 49.2036 12.128C49.3316 11.9893 49.4383 11.8667 49.5236 11.76C49.6196 11.6533 49.6676 11.536 49.6676 11.408C49.6676 11.2693 49.609 11.1573 49.4916 11.072C49.3743 10.976 49.2356 10.928 49.0756 10.928C48.937 10.928 48.8036 10.96 48.6756 11.024C48.5583 11.0773 48.4516 11.1413 48.3556 11.216C48.2703 11.2907 48.1796 11.3333 48.0836 11.344C47.9876 11.344 47.897 11.3013 47.8116 11.216C47.7476 11.1413 47.721 11.0613 47.7316 10.976C47.7423 10.88 47.7903 10.7893 47.8756 10.704Z" fill="#5A5A5A"/>
<rect x="0.5" y="0.5" width="61" height="31" rx="15.5" stroke="#D8D8D8"/>
</svg>
