<svg width="100" height="100" viewBox="0 0 100 100" fill="none" xmlns="http://www.w3.org/2000/svg">
<rect x="10" y="10" width="80" height="80" rx="40" fill="#FE6A84"/>
<path d="M69.3999 59.8007C66.159 57.2173 62.87 55.6524 59.6688 58.2319L57.7574 59.791C56.3588 60.9227 53.7586 66.2106 43.7051 55.4319C33.6537 44.6669 39.6351 42.9908 41.0357 41.8688L42.9576 40.3078C46.142 37.7224 44.9403 34.4677 42.6436 31.1174L41.2576 29.0881C38.9505 25.7457 36.4382 23.5505 33.2454 26.132L31.5203 27.5369C30.1092 28.495 26.1648 31.6092 25.208 37.5253C24.0566 44.624 27.689 52.7528 36.0111 61.672C44.3227 70.595 52.4605 75.077 60.1692 74.999C66.5756 74.9346 70.4446 71.7307 71.6547 70.5658L73.3862 69.1589C76.5705 66.5794 74.5921 63.953 71.3491 61.3637L69.3999 59.8007Z" fill="white"/>
<rect x="0.5" y="0.5" width="99" height="99" rx="49.5" stroke="#FE6A84"/>
</svg>
