<svg width="48" height="48" viewBox="0 0 48 48" fill="none" xmlns="http://www.w3.org/2000/svg">
<path d="M0 0H48V26C48 38.1503 38.1503 48 26 48H22C9.84974 48 0 38.1503 0 26V0Z" fill="#FFCD29"/>
<path d="M12.3866 16.8C12.5999 16.8 12.7866 16.88 12.9466 17.04C13.1172 17.1893 13.2026 17.3813 13.2026 17.616V27.184C13.1919 27.4187 13.1012 27.616 12.9306 27.776C12.7706 27.9253 12.5786 28 12.3546 28C12.1092 28 11.9066 27.9253 11.7466 27.776C11.5972 27.616 11.5226 27.4187 11.5226 27.184V17.616C11.5226 17.3813 11.6026 17.1893 11.7626 17.04C11.9226 16.88 12.1306 16.8 12.3866 16.8ZM19.6026 16.8C19.8586 16.8 20.0612 16.88 20.2106 17.04C20.3599 17.1893 20.4346 17.3813 20.4346 17.616V27.184C20.4346 27.4187 20.3546 27.616 20.1946 27.776C20.0452 27.9253 19.8426 28 19.5866 28C19.3626 28 19.1706 27.9253 19.0106 27.776C18.8506 27.616 18.7706 27.4187 18.7706 27.184V17.616C18.7706 17.3813 18.8506 17.1893 19.0106 17.04C19.1812 16.88 19.3786 16.8 19.6026 16.8ZM12.3226 21.568H19.6186L19.6026 23.104H12.3066L12.3226 21.568ZM30.9106 23.792C30.9106 24.6453 30.7239 25.4027 30.3506 26.064C29.9772 26.7147 29.4706 27.2267 28.8306 27.6C28.1906 27.9733 27.4706 28.16 26.6706 28.16C25.8706 28.16 25.1506 27.9733 24.5106 27.6C23.8706 27.2267 23.3586 26.7147 22.9746 26.064C22.6012 25.4027 22.4146 24.6453 22.4146 23.792C22.4146 22.928 22.6012 22.1707 22.9746 21.52C23.3586 20.8587 23.8706 20.3413 24.5106 19.968C25.1506 19.584 25.8706 19.392 26.6706 19.392C27.4706 19.392 28.1906 19.584 28.8306 19.968C29.4706 20.3413 29.9772 20.8587 30.3506 21.52C30.7239 22.1707 30.9106 22.928 30.9106 23.792ZM29.3106 23.792C29.3106 23.2053 29.1932 22.6987 28.9586 22.272C28.7239 21.8347 28.4039 21.4933 27.9986 21.248C27.6039 20.992 27.1612 20.864 26.6706 20.864C26.1799 20.864 25.7319 20.992 25.3266 21.248C24.9212 21.4933 24.6012 21.8347 24.3666 22.272C24.1319 22.6987 24.0146 23.2053 24.0146 23.792C24.0146 24.3573 24.1319 24.8587 24.3666 25.296C24.6012 25.7333 24.9212 26.0747 25.3266 26.32C25.7319 26.5653 26.1799 26.688 26.6706 26.688C27.1612 26.688 27.6039 26.5653 27.9986 26.32C28.4039 26.0747 28.7239 25.7333 28.9586 25.296C29.1932 24.8587 29.3106 24.3573 29.3106 23.792ZM32.6096 19.68H36.3696C36.5829 19.68 36.7589 19.7547 36.8976 19.904C37.0469 20.0427 37.1216 20.2187 37.1216 20.432C37.1216 20.6347 37.0469 20.8053 36.8976 20.944C36.7589 21.0827 36.5829 21.152 36.3696 21.152H32.6096C32.3962 21.152 32.2149 21.0827 32.0656 20.944C31.9269 20.7947 31.8576 20.6187 31.8576 20.416C31.8576 20.2027 31.9269 20.0267 32.0656 19.888C32.2149 19.7493 32.3962 19.68 32.6096 19.68ZM34.2896 17.6C34.5242 17.6 34.7162 17.68 34.8656 17.84C35.0149 17.9893 35.0896 18.1813 35.0896 18.416V25.84C35.0896 26.032 35.1216 26.1867 35.1856 26.304C35.2496 26.4213 35.3349 26.5013 35.4416 26.544C35.5589 26.5867 35.6762 26.608 35.7936 26.608C35.9109 26.608 36.0122 26.5867 36.0976 26.544C36.1936 26.5013 36.3056 26.48 36.4336 26.48C36.5616 26.48 36.6789 26.5387 36.7856 26.656C36.8922 26.7733 36.9456 26.9333 36.9456 27.136C36.9456 27.392 36.8069 27.6 36.5296 27.76C36.2522 27.92 35.9536 28 35.6336 28C35.4522 28 35.2389 27.984 34.9936 27.952C34.7482 27.92 34.5082 27.84 34.2736 27.712C34.0496 27.584 33.8629 27.3813 33.7136 27.104C33.5642 26.816 33.4896 26.416 33.4896 25.904V18.416C33.4896 18.1813 33.5642 17.9893 33.7136 17.84C33.8736 17.68 34.0656 17.6 34.2896 17.6Z" fill="white"/>
</svg>
