<svg width="48" height="48" viewBox="0 0 48 48" fill="none" xmlns="http://www.w3.org/2000/svg">
<path d="M0 0H48V26C48 38.1503 38.1503 48 26 48H22C9.84974 48 0 38.1503 0 26V0Z" fill="#FF0000"/>
<path d="M12.4548 28.16C11.6868 28.16 11.0041 28.0533 10.4068 27.84C9.80942 27.6267 9.23875 27.2747 8.69475 26.784C8.57742 26.6987 8.48675 26.5973 8.42275 26.48C8.36942 26.352 8.34275 26.224 8.34275 26.096C8.34275 25.8933 8.41742 25.712 8.56675 25.552C8.71608 25.392 8.90275 25.312 9.12675 25.312C9.29742 25.312 9.45742 25.3707 9.60675 25.488C10.0121 25.8613 10.4334 26.144 10.8708 26.336C11.3188 26.528 11.8414 26.624 12.4388 26.624C12.8654 26.624 13.2548 26.5547 13.6068 26.416C13.9694 26.2773 14.2574 26.0907 14.4708 25.856C14.6841 25.6213 14.7908 25.3493 14.7908 25.04C14.7908 24.656 14.6788 24.3413 14.4548 24.096C14.2414 23.84 13.9268 23.632 13.5108 23.472C13.1054 23.3013 12.6148 23.1573 12.0388 23.04C11.5054 22.944 11.0254 22.8107 10.5988 22.64C10.1828 22.4693 9.82542 22.256 9.52675 22C9.22808 21.7333 8.99875 21.4187 8.83875 21.056C8.67875 20.6933 8.59875 20.272 8.59875 19.792C8.59875 19.1413 8.76942 18.5813 9.11075 18.112C9.45208 17.6427 9.91608 17.28 10.5028 17.024C11.0894 16.768 11.7508 16.64 12.4868 16.64C13.1588 16.64 13.7881 16.7467 14.3748 16.96C14.9614 17.1627 15.4361 17.44 15.7987 17.792C16.0548 18.016 16.1828 18.256 16.1828 18.512C16.1828 18.704 16.1028 18.8853 15.9427 19.056C15.7934 19.216 15.6174 19.296 15.4148 19.296C15.2654 19.296 15.1374 19.2533 15.0308 19.168C14.8601 18.9867 14.6308 18.8267 14.3428 18.688C14.0548 18.5387 13.7454 18.416 13.4148 18.32C13.0948 18.224 12.7854 18.176 12.4868 18.176C12.0068 18.176 11.5961 18.2453 11.2548 18.384C10.9134 18.512 10.6521 18.6933 10.4708 18.928C10.2894 19.152 10.1988 19.4187 10.1988 19.728C10.1988 20.0907 10.3001 20.3893 10.5028 20.624C10.7161 20.8587 11.0094 21.0507 11.3828 21.2C11.7561 21.3387 12.1828 21.4667 12.6628 21.584C13.2494 21.712 13.7721 21.856 14.2308 22.016C14.7001 22.176 15.0948 22.384 15.4148 22.64C15.7348 22.8853 15.9801 23.1947 16.1508 23.568C16.3214 23.9413 16.4068 24.4053 16.4068 24.96C16.4068 25.6 16.2254 26.16 15.8628 26.64C15.5001 27.12 15.0201 27.4933 14.4228 27.76C13.8361 28.0267 13.1801 28.16 12.4548 28.16ZM25.0941 19.456C25.3288 19.456 25.5208 19.536 25.6701 19.696C25.8195 19.8453 25.8941 20.0373 25.8941 20.272V27.184C25.8941 27.4187 25.8195 27.616 25.6701 27.776C25.5208 27.9253 25.3288 28 25.0941 28C24.8701 28 24.6781 27.9253 24.5181 27.776C24.3688 27.616 24.2941 27.4187 24.2941 27.184V26.032L24.6301 26.08C24.6301 26.272 24.5501 26.4853 24.3901 26.72C24.2408 26.9547 24.0328 27.184 23.7661 27.408C23.4995 27.6213 23.1848 27.8027 22.8221 27.952C22.4595 28.0907 22.0701 28.16 21.6541 28.16C20.9181 28.16 20.2568 27.9733 19.6701 27.6C19.0835 27.216 18.6195 26.6933 18.2781 26.032C17.9368 25.3707 17.7661 24.6187 17.7661 23.776C17.7661 22.912 17.9368 22.1547 18.2781 21.504C18.6195 20.8427 19.0781 20.3253 19.6541 19.952C20.2408 19.5787 20.8915 19.392 21.6061 19.392C22.0648 19.392 22.4861 19.4667 22.8701 19.616C23.2648 19.7653 23.6061 19.9573 23.8941 20.192C24.1821 20.4267 24.4008 20.6773 24.5501 20.944C24.7101 21.2 24.7901 21.4453 24.7901 21.68L24.2941 21.728V20.272C24.2941 20.048 24.3688 19.856 24.5181 19.696C24.6781 19.536 24.8701 19.456 25.0941 19.456ZM21.8301 26.688C22.3315 26.688 22.7741 26.56 23.1581 26.304C23.5421 26.048 23.8408 25.7013 24.0541 25.264C24.2675 24.816 24.3741 24.32 24.3741 23.776C24.3741 23.2213 24.2675 22.7253 24.0541 22.288C23.8408 21.8507 23.5421 21.504 23.1581 21.248C22.7741 20.992 22.3315 20.864 21.8301 20.864C21.3395 20.864 20.9021 20.992 20.5181 21.248C20.1448 21.504 19.8461 21.8507 19.6221 22.288C19.4088 22.7253 19.3021 23.2213 19.3021 23.776C19.3021 24.32 19.4088 24.816 19.6221 25.264C19.8461 25.7013 20.1448 26.048 20.5181 26.304C20.9021 26.56 21.3395 26.688 21.8301 26.688ZM29.8636 27.184C29.8636 27.4187 29.7836 27.616 29.6236 27.776C29.4743 27.9253 29.2876 28 29.0636 28C28.8396 28 28.6476 27.9253 28.4876 27.776C28.3383 27.616 28.2636 27.4187 28.2636 27.184V16.976C28.2636 16.7413 28.3436 16.5493 28.5036 16.4C28.6636 16.24 28.8556 16.16 29.0796 16.16C29.3143 16.16 29.501 16.24 29.6396 16.4C29.789 16.5493 29.8636 16.7413 29.8636 16.976V27.184ZM36.0088 28.16C35.1234 28.16 34.3554 27.9787 33.7048 27.616C33.0541 27.2427 32.5474 26.736 32.1848 26.096C31.8328 25.4453 31.6568 24.704 31.6568 23.872C31.6568 22.9333 31.8434 22.1333 32.2168 21.472C32.6008 20.8 33.0968 20.288 33.7048 19.936C34.3128 19.5733 34.9581 19.392 35.6408 19.392C36.1634 19.392 36.6594 19.4987 37.1288 19.712C37.5981 19.9147 38.0141 20.2027 38.3768 20.576C38.7501 20.9387 39.0434 21.3707 39.2568 21.872C39.4701 22.3627 39.5821 22.9013 39.5928 23.488C39.5821 23.7013 39.4968 23.8773 39.3368 24.016C39.1768 24.1547 38.9901 24.224 38.7768 24.224H32.5528L32.1688 22.864H38.1848L37.8808 23.152V22.752C37.8594 22.3787 37.7368 22.0533 37.5128 21.776C37.2888 21.488 37.0114 21.2693 36.6808 21.12C36.3501 20.96 36.0034 20.88 35.6408 20.88C35.3208 20.88 35.0114 20.9333 34.7128 21.04C34.4248 21.136 34.1634 21.296 33.9288 21.52C33.7048 21.744 33.5234 22.0427 33.3848 22.416C33.2568 22.7787 33.1928 23.232 33.1928 23.776C33.1928 24.3627 33.3154 24.8747 33.5608 25.312C33.8061 25.7493 34.1368 26.0907 34.5528 26.336C34.9688 26.5707 35.4274 26.688 35.9288 26.688C36.3234 26.688 36.6488 26.6507 36.9048 26.576C37.1608 26.4907 37.3741 26.3893 37.5448 26.272C37.7154 26.1547 37.8648 26.0427 37.9928 25.936C38.1528 25.84 38.3128 25.792 38.4728 25.792C38.6648 25.792 38.8248 25.8613 38.9528 26C39.0808 26.128 39.1448 26.2827 39.1448 26.464C39.1448 26.6987 39.0274 26.912 38.7928 27.104C38.5048 27.3813 38.1048 27.6267 37.5928 27.84C37.0914 28.0533 36.5634 28.16 36.0088 28.16Z" fill="white"/>
</svg>
